<?xml version="1.0" encoding="UTF-8"?>
<!DOCTYPE svg PUBLIC "-//W3C//DTD SVG 1.1//EN" "http://www.w3.org/Graphics/SVG/1.1/DTD/svg11.dtd">
<svg xmlns="http://www.w3.org/2000/svg" version="1.1" width="323px" height="323px" style="shape-rendering:geometricPrecision; text-rendering:geometricPrecision; image-rendering:optimizeQuality; fill-rule:evenodd; clip-rule:evenodd" xmlns:xlink="http://www.w3.org/1999/xlink">
<g><path style="opacity:0.808" fill="#d1a67b" d="M 169.5,44.5 C 168.25,47.006 167.584,49.6726 167.5,52.5C 167.5,52.8333 167.5,53.1667 167.5,53.5C 166.167,53.5 164.833,53.5 163.5,53.5C 164.315,49.5538 165.815,45.8871 168,42.5C 168.717,43.0442 169.217,43.7109 169.5,44.5 Z"/></g>
<g><path style="opacity:1" fill="#e88f8a" d="M 169.5,44.5 C 171.25,45.6594 172.25,47.326 172.5,49.5C 172.414,50.4959 172.748,51.3292 173.5,52C 171.527,52.4955 169.527,52.6621 167.5,52.5C 167.584,49.6726 168.25,47.006 169.5,44.5 Z"/></g>
<g><path style="opacity:0.169" fill="#8d6173" d="M 172.5,49.5 C 174.582,50.5849 174.916,52.0849 173.5,54C 171.455,54.4901 169.455,54.3235 167.5,53.5C 167.5,53.1667 167.5,52.8333 167.5,52.5C 169.527,52.6621 171.527,52.4955 173.5,52C 172.748,51.3292 172.414,50.4959 172.5,49.5 Z"/></g>
<g><path style="opacity:0.616" fill="#806a9e" d="M 129.5,54.5 C 132.548,54.494 133.048,55.494 131,57.5C 129.961,56.7562 129.461,55.7562 129.5,54.5 Z"/></g>
<g><path style="opacity:0.686" fill="#ba7a6f" d="M 197.5,59.5 C 201.225,59.5372 202.558,61.2038 201.5,64.5C 196.733,65.8987 195.4,64.232 197.5,59.5 Z"/></g>
<g><path style="opacity:1" fill="#e2907e" d="M 151.5,58.5 C 152.902,60.8754 154.235,63.2088 155.5,65.5C 154.448,67.256 152.781,67.9227 150.5,67.5C 150.19,64.2869 150.523,61.2869 151.5,58.5 Z"/></g>
<g><path style="opacity:1" fill="#efbb65" d="M 151.5,58.5 C 150.523,61.2869 150.19,64.2869 150.5,67.5C 146.029,68.0894 142.029,67.4228 138.5,65.5C 140.185,60.6293 142.518,56.1293 145.5,52C 146.996,51.4926 148.163,51.9926 149,53.5C 149.366,55.4517 150.199,57.1184 151.5,58.5 Z"/></g>
<g><path style="opacity:1" fill="#886b57" d="M 138.5,65.5 C 142.029,67.4228 146.029,68.0894 150.5,67.5C 152.781,67.9227 154.448,67.256 155.5,65.5C 156.338,65.8417 156.672,66.5084 156.5,67.5C 150.355,68.4902 144.022,68.8235 137.5,68.5C 136.285,67.221 136.618,66.221 138.5,65.5 Z"/></g>
<g><path style="opacity:1" fill="#5ebfb7" d="M 175.5,69.5 C 186.086,70.7451 196.086,73.7451 205.5,78.5C 205.5,79.5 205.5,80.5 205.5,81.5C 203.833,81.5 202.167,81.5 200.5,81.5C 188.396,75.8159 175.73,73.8159 162.5,75.5C 162.877,73.742 163.544,72.0754 164.5,70.5C 168.107,69.5108 171.774,69.1774 175.5,69.5 Z"/></g>
<g><path style="opacity:0.486" fill="#c27b68" d="M 112.5,65.5 C 115.091,66.2543 116.924,67.921 118,70.5C 118.699,72.0738 118.365,73.4071 117,74.5C 114.389,73.9294 111.889,73.0961 109.5,72C 111.219,70.1295 112.219,67.9628 112.5,65.5 Z"/></g>
<g><path style="opacity:0.612" fill="#7d5d74" d="M 220.5,72.5 C 222.59,72.4501 223.923,73.4501 224.5,75.5C 221.581,76.9318 220.248,75.9318 220.5,72.5 Z"/></g>
<g><path style="opacity:1" fill="#e3b66c" d="M 95.5,74.5 C 93.03,77.6174 91.03,80.9507 89.5,84.5C 88.1667,84.5 86.8333,84.5 85.5,84.5C 86.7153,79.065 89.2153,74.3983 93,70.5C 94.5947,71.3557 95.428,72.6891 95.5,74.5 Z"/></g>
<g><path style="opacity:1" fill="#d97b7e" d="M 95.5,74.5 C 97.9151,77.3399 99.2484,80.6733 99.5,84.5C 96.1667,84.5 92.8333,84.5 89.5,84.5C 91.03,80.9507 93.03,77.6174 95.5,74.5 Z"/></g>
<g><path style="opacity:1" fill="#287389" d="M 200.5,81.5 C 203.009,82.9213 205.343,84.5879 207.5,86.5C 205.883,87.038 204.216,87.3713 202.5,87.5C 197.521,85.3456 192.521,83.1789 187.5,81C 185.934,80.235 184.601,80.4017 183.5,81.5C 182.833,81.5 182.167,81.5 181.5,81.5C 177.982,79.0339 173.982,78.0339 169.5,78.5C 167.221,77.3485 164.888,76.3485 162.5,75.5C 175.73,73.8159 188.396,75.8159 200.5,81.5 Z"/></g>
<g><path style="opacity:1" fill="#4a5474" d="M 138.5,71.5 C 139.5,71.5 140.5,71.5 141.5,71.5C 141.629,73.2161 141.962,74.8828 142.5,76.5C 136.543,78.4763 131.21,81.4763 126.5,85.5C 125.833,85.5 125.167,85.5 124.5,85.5C 123.666,84.2521 122.333,83.5854 120.5,83.5C 117.891,83.4413 115.557,84.108 113.5,85.5C 121.121,79.5237 129.454,74.8571 138.5,71.5 Z"/></g>
<g><path style="opacity:1" fill="#bceed1" d="M 162.5,75.5 C 164.888,76.3485 167.221,77.3485 169.5,78.5C 172.937,79.9448 176.603,80.9448 180.5,81.5C 180.663,83.8568 180.497,86.1902 180,88.5C 178.32,87.3966 176.82,87.7299 175.5,89.5C 168.01,90.8194 160.677,90.8194 153.5,89.5C 156.004,84.4854 159.004,79.8187 162.5,75.5 Z"/></g>
<g><path style="opacity:1" fill="#2c3852" d="M 156.5,67.5 C 158.042,68.3007 159.708,68.634 161.5,68.5C 156.899,71.924 152.399,75.5907 148,79.5C 147.681,83.7169 148.514,87.7169 150.5,91.5C 148.52,90.1525 147.353,88.1525 147,85.5C 146.454,88.3791 145.621,91.0458 144.5,93.5C 144.872,87.57 144.205,81.9033 142.5,76.5C 141.962,74.8828 141.629,73.2161 141.5,71.5C 140.5,71.5 139.5,71.5 138.5,71.5C 138.167,70.8333 137.833,70.1667 137.5,69.5C 137.5,69.1667 137.5,68.8333 137.5,68.5C 144.022,68.8235 150.355,68.4902 156.5,67.5 Z"/></g>
<g><path style="opacity:1" fill="#dbf1ab" d="M 142.5,76.5 C 144.205,81.9033 144.872,87.57 144.5,93.5C 143.5,93.5 142.5,93.5 141.5,93.5C 139.189,90.7089 136.856,87.8755 134.5,85C 131.843,84.8253 129.176,84.9919 126.5,85.5C 131.21,81.4763 136.543,78.4763 142.5,76.5 Z"/></g>
<g><path style="opacity:1" fill="#389091" d="M 161.5,68.5 C 166.363,68.1805 171.03,68.5139 175.5,69.5C 171.774,69.1774 168.107,69.5108 164.5,70.5C 163.544,72.0754 162.877,73.742 162.5,75.5C 159.004,79.8187 156.004,84.4854 153.5,89.5C 152.662,89.8417 152.328,90.5084 152.5,91.5C 151.833,91.5 151.167,91.5 150.5,91.5C 148.514,87.7169 147.681,83.7169 148,79.5C 152.399,75.5907 156.899,71.924 161.5,68.5 Z"/></g>
<g><path style="opacity:0.592" fill="#d4d8aa" d="M 137.5,69.5 C 137.833,70.1667 138.167,70.8333 138.5,71.5C 129.454,74.8571 121.121,79.5237 113.5,85.5C 108.953,87.706 104.953,90.706 101.5,94.5C 101.5,93.1667 100.833,92.5 99.5,92.5C 110.576,82.2912 123.243,74.6245 137.5,69.5 Z"/></g>
<g><path style="opacity:1" fill="#e5eb9a" d="M 141.5,93.5 C 133.016,97.2422 125.35,102.242 118.5,108.5C 118.5,107.833 118.5,107.167 118.5,106.5C 116.673,102.495 117.84,101.161 122,102.5C 123.3,101.293 124.8,100.626 126.5,100.5C 126.351,99.448 126.517,98.448 127,97.5C 128.183,98.731 129.349,98.731 130.5,97.5C 129.252,95.5414 127.585,94.0414 125.5,93C 126.167,92.6667 126.833,92.3333 127.5,92C 125.765,91.3486 124.098,91.5153 122.5,92.5C 122.002,91.3966 121.669,90.3966 121.5,89.5C 117.189,92.1453 113.522,95.4786 110.5,99.5C 109.609,100.11 108.609,100.443 107.5,100.5C 112.277,94.3839 117.943,89.3839 124.5,85.5C 125.167,85.5 125.833,85.5 126.5,85.5C 129.176,84.9919 131.843,84.8253 134.5,85C 136.856,87.8755 139.189,90.7089 141.5,93.5 Z"/></g>
<g><path style="opacity:1" fill="#967fae" d="M 183.5,81.5 C 184.601,80.4017 185.934,80.235 187.5,81C 192.521,83.1789 197.521,85.3456 202.5,87.5C 206.5,90.5 210.5,93.5 214.5,96.5C 211.167,95.1667 207.833,93.8333 204.5,92.5C 197.653,88.5762 190.653,84.9095 183.5,81.5 Z"/></g>
<g><path style="opacity:0.82" fill="#d58b84" d="M 237.5,85.5 C 237.5,86.8333 237.5,88.1667 237.5,89.5C 235.167,89.5 232.833,89.5 230.5,89.5C 229.402,88.3991 229.235,87.0657 230,85.5C 231.333,83.5 232.667,81.5 234,79.5C 235.947,81.0634 237.114,83.0634 237.5,85.5 Z"/></g>
<g><path style="opacity:0.043" fill="#8b536c" d="M 237.5,85.5 C 238.452,86.452 239.452,87.452 240.5,88.5C 240.291,89.086 239.957,89.586 239.5,90C 236.304,90.8045 233.304,90.6378 230.5,89.5C 232.833,89.5 235.167,89.5 237.5,89.5C 237.5,88.1667 237.5,86.8333 237.5,85.5 Z"/></g>
<g><path style="opacity:1" fill="#4c8da1" d="M 205.5,78.5 C 211.731,81.7748 217.397,85.7748 222.5,90.5C 222.062,90.4346 221.728,90.6012 221.5,91C 222.87,92.4413 223.87,94.108 224.5,96C 224,96.1667 223.5,96.3333 223,96.5C 218.218,92.5286 213.052,89.1952 207.5,86.5C 205.343,84.5879 203.009,82.9213 200.5,81.5C 202.167,81.5 203.833,81.5 205.5,81.5C 205.5,80.5 205.5,79.5 205.5,78.5 Z"/></g>
<g><path style="opacity:1" fill="#b6e3cb" d="M 169.5,78.5 C 173.982,78.0339 177.982,79.0339 181.5,81.5C 181.5,82.5 181.5,83.5 181.5,84.5C 184.32,84.2475 186.986,84.7475 189.5,86C 189.167,86.3333 188.833,86.6667 188.5,87C 193.219,89.4504 195.219,93.117 194.5,98C 193.167,98.6667 191.833,98.6667 190.5,98C 187.044,95.1073 183.044,93.6073 178.5,93.5C 169.917,91.9217 161.25,91.255 152.5,91.5C 152.328,90.5084 152.662,89.8417 153.5,89.5C 160.677,90.8194 168.01,90.8194 175.5,89.5C 176.82,87.7299 178.32,87.3966 180,88.5C 180.497,86.1902 180.663,83.8568 180.5,81.5C 176.603,80.9448 172.937,79.9448 169.5,78.5 Z"/></g>
<g><path style="opacity:1" fill="#b1d9ca" d="M 181.5,81.5 C 182.167,81.5 182.833,81.5 183.5,81.5C 190.653,84.9095 197.653,88.5762 204.5,92.5C 205.5,93.8333 206.5,95.1667 207.5,96.5C 207.678,97.6948 208.011,98.8615 208.5,100C 207.453,101.63 206.453,103.296 205.5,105C 206.337,106.011 206.67,107.178 206.5,108.5C 205.5,108.5 204.5,108.5 203.5,108.5C 203.138,105.113 201.138,103.447 197.5,103.5C 191.521,99.403 185.187,96.0697 178.5,93.5C 183.044,93.6073 187.044,95.1073 190.5,98C 191.833,98.6667 193.167,98.6667 194.5,98C 195.219,93.117 193.219,89.4504 188.5,87C 188.833,86.6667 189.167,86.3333 189.5,86C 186.986,84.7475 184.32,84.2475 181.5,84.5C 181.5,83.5 181.5,82.5 181.5,81.5 Z"/></g>
<g><path style="opacity:1" fill="#4c4868" d="M 124.5,85.5 C 117.943,89.3839 112.277,94.3839 107.5,100.5C 103.759,103.237 100.759,106.57 98.5,110.5C 96.9826,110.489 95.8159,109.823 95,108.5C 92.4536,111.384 90.7869,114.717 90,118.5C 88.0248,118.508 86.1914,119.508 84.5,121.5C 84.1667,121.167 83.8333,120.833 83.5,120.5C 86.2442,117.269 88.7442,113.935 91,110.5C 91.49,109.207 91.6567,107.873 91.5,106.5C 94.4633,102.202 97.7966,98.2023 101.5,94.5C 104.953,90.706 108.953,87.706 113.5,85.5C 115.557,84.108 117.891,83.4413 120.5,83.5C 122.333,83.5854 123.666,84.2521 124.5,85.5 Z"/></g>
<g><path style="opacity:1" fill="#1e2135" d="M 150.5,91.5 C 151.167,91.5 151.833,91.5 152.5,91.5C 161.25,91.255 169.917,91.9217 178.5,93.5C 185.187,96.0697 191.521,99.403 197.5,103.5C 198.5,104.833 199.5,106.167 200.5,107.5C 196.009,104.753 191.343,102.253 186.5,100C 185.207,99.51 183.873,99.3433 182.5,99.5C 172.202,94.9253 161.535,92.2587 150.5,91.5 Z"/></g>
<g><path style="opacity:1" fill="#242640" d="M 150.5,91.5 C 161.535,92.2587 172.202,94.9253 182.5,99.5C 182.833,100.167 183.167,100.833 183.5,101.5C 177.574,99.3024 171.574,97.3024 165.5,95.5C 162.167,95.5 158.833,95.5 155.5,95.5C 150.445,96.0249 145.779,97.6915 141.5,100.5C 139.09,103.251 136.423,105.585 133.5,107.5C 131.795,109.192 129.795,110.525 127.5,111.5C 126.167,111.5 124.833,111.5 123.5,111.5C 124.451,109.38 125.951,107.714 128,106.5C 128.688,105.668 128.521,105.002 127.5,104.5C 124.976,106.19 122.976,108.357 121.5,111C 120.181,111.195 118.847,111.028 117.5,110.5C 117.833,109.833 118.167,109.167 118.5,108.5C 125.35,102.242 133.016,97.2422 141.5,93.5C 142.5,93.5 143.5,93.5 144.5,93.5C 145.621,91.0458 146.454,88.3791 147,85.5C 147.353,88.1525 148.52,90.1525 150.5,91.5 Z"/></g>
<g><path style="opacity:0.227" fill="#856ca4" d="M 52.5,98.5 C 54.0481,98.8212 54.7148,99.8212 54.5,101.5C 51.7524,101.598 51.0857,100.598 52.5,98.5 Z"/></g>
<g><path style="opacity:1" fill="#efee8d" d="M 118.5,106.5 C 115.833,104.167 113.167,101.833 110.5,99.5C 113.522,95.4786 117.189,92.1453 121.5,89.5C 121.669,90.3966 122.002,91.3966 122.5,92.5C 124.098,91.5153 125.765,91.3486 127.5,92C 126.833,92.3333 126.167,92.6667 125.5,93C 127.585,94.0414 129.252,95.5414 130.5,97.5C 129.349,98.731 128.183,98.731 127,97.5C 126.517,98.448 126.351,99.448 126.5,100.5C 124.8,100.626 123.3,101.293 122,102.5C 117.84,101.161 116.673,102.495 118.5,106.5 Z"/></g>
<g><path style="opacity:1" fill="#a9ccc9" d="M 207.5,96.5 C 209.167,97.5 210.5,98.8333 211.5,100.5C 211.645,103.474 212.978,105.641 215.5,107C 213.266,107.969 211.266,109.302 209.5,111C 211.624,112.582 213.79,112.749 216,111.5C 217.654,114.275 217.321,116.942 215,119.5C 214.626,118.584 214.126,117.75 213.5,117C 215.26,116.035 215.594,114.868 214.5,113.5C 213.672,114.415 212.672,115.081 211.5,115.5C 210.133,114.775 208.8,114.108 207.5,113.5C 205.167,111.5 202.833,109.5 200.5,107.5C 199.5,106.167 198.5,104.833 197.5,103.5C 201.138,103.447 203.138,105.113 203.5,108.5C 204.5,108.5 205.5,108.5 206.5,108.5C 206.67,107.178 206.337,106.011 205.5,105C 206.453,103.296 207.453,101.63 208.5,100C 208.011,98.8615 207.678,97.6948 207.5,96.5 Z"/></g>
<g><path style="opacity:1" fill="#316687" d="M 207.5,86.5 C 213.052,89.1952 218.218,92.5286 223,96.5C 223.5,96.3333 224,96.1667 224.5,96C 223.87,94.108 222.87,92.4413 221.5,91C 221.728,90.6012 222.062,90.4346 222.5,90.5C 225.527,92.8605 228.194,95.5271 230.5,98.5C 234.567,105.467 238.234,112.634 241.5,120C 241.389,121.722 240.889,121.888 240,120.5C 239.064,117.232 237.064,114.899 234,113.5C 233.781,112.062 233.281,110.729 232.5,109.5C 231.583,110.127 230.583,110.461 229.5,110.5C 224.526,105.861 219.526,101.195 214.5,96.5C 210.5,93.5 206.5,90.5 202.5,87.5C 204.216,87.3713 205.883,87.038 207.5,86.5 Z"/></g>
<g><path style="opacity:1" fill="#eee789" d="M 110.5,99.5 C 113.167,101.833 115.833,104.167 118.5,106.5C 118.5,107.167 118.5,107.833 118.5,108.5C 118.167,109.167 117.833,109.833 117.5,110.5C 114.129,112.936 111.462,115.936 109.5,119.5C 108.928,117.745 108.094,116.078 107,114.5C 105.234,117.645 102.901,120.312 100,122.5C 99.3128,120.445 98.1461,118.779 96.5,117.5C 95.8492,119.847 94.5159,121.514 92.5,122.5C 93.9751,118.217 95.9751,114.217 98.5,110.5C 100.759,106.57 103.759,103.237 107.5,100.5C 108.609,100.443 109.609,100.11 110.5,99.5 Z"/></g>
<g><path style="opacity:1" fill="#f0f593" d="M 164.5,97.5 C 167.313,101.114 166.979,104.448 163.5,107.5C 158.42,107.38 156.087,104.713 156.5,99.5C 158.78,97.7773 161.447,97.1107 164.5,97.5 Z"/></g>
<g><path style="opacity:0.694" fill="#a6466c" d="M 247.5,104.5 C 253.142,107.916 252.475,109.583 245.5,109.5C 245.392,107.486 246.058,105.82 247.5,104.5 Z"/></g>
<g><path style="opacity:1" fill="#eddb86" d="M 99.5,92.5 C 100.833,92.5 101.5,93.1667 101.5,94.5C 97.7966,98.2023 94.4633,102.202 91.5,106.5C 79.3254,120.353 74.6588,136.353 77.5,154.5C 77.8333,156.5 78.1667,158.5 78.5,160.5C 79.5527,163.607 80.886,166.607 82.5,169.5C 80.1971,168.589 78.6971,166.923 78,164.5C 77.5172,165.448 77.3505,166.448 77.5,167.5C 76.8653,164.069 75.8653,160.736 74.5,157.5C 69.8575,140.765 72.3575,125.098 82,110.5C 84.575,107.681 86.9083,104.681 89,101.5C 92.6668,98.6645 96.1668,95.6645 99.5,92.5 Z"/></g>
<g><path style="opacity:1" fill="#506c7f" d="M 167.5,99.5 C 170.851,101.844 174.185,103.51 177.5,104.5C 179.33,107.491 181.163,110.491 183,113.5C 185.926,115.23 188.76,117.896 191.5,121.5C 191.461,122.583 191.127,123.583 190.5,124.5C 188.205,125.136 186.539,126.469 185.5,128.5C 188.093,130.071 189.093,132.404 188.5,135.5C 186.737,132.98 184.737,130.647 182.5,128.5C 180.64,127.061 178.973,125.395 177.5,123.5C 177.586,122.504 177.252,121.671 176.5,121C 174.956,120.71 173.623,120.044 172.5,119C 173.772,117.693 174.772,116.193 175.5,114.5C 175.995,117.47 177.495,119.804 180,121.5C 182.228,120.108 183.394,118.108 183.5,115.5C 181.857,115.48 180.524,116.147 179.5,117.5C 177.968,111.974 174.302,108.974 168.5,108.5C 167.516,105.572 167.183,102.572 167.5,99.5 Z"/></g>
<g><path style="opacity:1" fill="#594e68" d="M 91.5,106.5 C 91.6567,107.873 91.49,109.207 91,110.5C 88.7442,113.935 86.2442,117.269 83.5,120.5C 83.8333,120.833 84.1667,121.167 84.5,121.5C 86.1914,119.508 88.0248,118.508 90,118.5C 90.7869,114.717 92.4536,111.384 95,108.5C 95.8159,109.823 96.9826,110.489 98.5,110.5C 95.9751,114.217 93.9751,118.217 92.5,122.5C 89.2017,128.271 88.0351,134.605 89,141.5C 89.9973,143.323 91.1639,144.99 92.5,146.5C 90.3925,146.278 88.7258,145.278 87.5,143.5C 86.7408,140.843 86.0742,138.177 85.5,135.5C 88.6125,131.934 89.2791,127.934 87.5,123.5C 82.1783,124.328 79.5116,127.495 79.5,133C 80.3253,135.778 80.992,138.611 81.5,141.5C 80.3995,143.277 79.5662,145.277 79,147.5C 78.6667,147.167 78.3333,146.833 78,146.5C 77.51,147.793 77.3433,149.127 77.5,150.5C 77.5,151.833 77.5,153.167 77.5,154.5C 74.6588,136.353 79.3254,120.353 91.5,106.5 Z"/></g>
<g><path style="opacity:1" fill="#597c88" d="M 156.5,99.5 C 156.087,104.713 158.42,107.38 163.5,107.5C 164.5,107.5 165.5,107.5 166.5,107.5C 166.081,110.325 167.081,112.491 169.5,114C 169.167,114.333 168.833,114.667 168.5,115C 171.028,115.998 171.028,116.831 168.5,117.5C 166.053,115.627 163.386,115.794 160.5,118C 156.961,118.282 153.461,118.782 150,119.5C 149.5,119.167 149,118.833 148.5,118.5C 149.544,116.232 149.711,113.899 149,111.5C 148.329,110.748 147.496,110.414 146.5,110.5C 144.486,110.392 142.82,111.058 141.5,112.5C 143.059,109.904 144.726,107.237 146.5,104.5C 150.295,103.693 153.628,102.026 156.5,99.5 Z"/></g>
<g><path style="opacity:1" fill="#b86faa" d="M 204.5,92.5 C 207.833,93.8333 211.167,95.1667 214.5,96.5C 219.526,101.195 224.526,105.861 229.5,110.5C 232.606,115.608 235.272,120.941 237.5,126.5C 233.57,123.325 229.737,119.325 226,114.5C 224.744,110.984 222.744,107.984 220,105.5C 219.517,106.448 219.351,107.448 219.5,108.5C 217.194,105.527 214.527,102.86 211.5,100.5C 210.5,98.8333 209.167,97.5 207.5,96.5C 206.5,95.1667 205.5,93.8333 204.5,92.5 Z"/></g>
<g><path style="opacity:1" fill="#4c637a" d="M 155.5,95.5 C 158.833,95.5 162.167,95.5 165.5,95.5C 165.833,96.1667 166.167,96.8333 166.5,97.5C 165.833,97.5 165.167,97.5 164.5,97.5C 161.447,97.1107 158.78,97.7773 156.5,99.5C 153.628,102.026 150.295,103.693 146.5,104.5C 144.726,107.237 143.059,109.904 141.5,112.5C 141.5,112.833 141.5,113.167 141.5,113.5C 139.752,116.998 140.752,119.665 144.5,121.5C 143.675,122.386 142.675,122.719 141.5,122.5C 141.5,123.5 141.5,124.5 141.5,125.5C 139.138,128.192 136.804,130.859 134.5,133.5C 134.643,131.738 134.309,130.071 133.5,128.5C 134.441,128.511 135.108,128.011 135.5,127C 135.05,125.715 134.383,124.548 133.5,123.5C 134.499,118.842 135.499,114.175 136.5,109.5C 139.686,106.479 143.02,103.646 146.5,101C 149.836,98.8353 153.503,97.502 157.5,97C 156.584,96.7216 155.918,96.2216 155.5,95.5 Z"/></g>
<g><path style="opacity:1" fill="#21223d" d="M 182.5,99.5 C 183.873,99.3433 185.207,99.51 186.5,100C 191.343,102.253 196.009,104.753 200.5,107.5C 202.833,109.5 205.167,111.5 207.5,113.5C 210.434,118.368 213.1,123.368 215.5,128.5C 217.109,138.471 216.276,138.804 213,129.5C 209.804,126.32 207.471,122.653 206,118.5C 201.262,113.926 196.095,109.926 190.5,106.5C 189.376,105.086 188.376,103.586 187.5,102C 186.207,101.51 184.873,101.343 183.5,101.5C 183.167,100.833 182.833,100.167 182.5,99.5 Z"/></g>
<g><path style="opacity:1" fill="#e9bb6a" d="M 146.5,110.5 C 149.086,113.006 149.086,115.506 146.5,118C 143.162,118.5 141.495,117 141.5,113.5C 141.5,113.167 141.5,112.833 141.5,112.5C 142.82,111.058 144.486,110.392 146.5,110.5 Z"/></g>
<g><path style="opacity:1" fill="#5f7c82" d="M 164.5,97.5 C 165.167,97.5 165.833,97.5 166.5,97.5C 166.833,98.1667 167.167,98.8333 167.5,99.5C 167.183,102.572 167.516,105.572 168.5,108.5C 174.302,108.974 177.968,111.974 179.5,117.5C 180.524,116.147 181.857,115.48 183.5,115.5C 183.394,118.108 182.228,120.108 180,121.5C 177.495,119.804 175.995,117.47 175.5,114.5C 174.772,116.193 173.772,117.693 172.5,119C 173.623,120.044 174.956,120.71 176.5,121C 177.252,121.671 177.586,122.504 177.5,123.5C 176.833,123.5 176.167,123.5 175.5,123.5C 171.071,120.474 166.071,119.141 160.5,119.5C 154.323,119.034 148.99,120.701 144.5,124.5C 143.391,124.557 142.391,124.89 141.5,125.5C 141.5,124.5 141.5,123.5 141.5,122.5C 142.675,122.719 143.675,122.386 144.5,121.5C 140.752,119.665 139.752,116.998 141.5,113.5C 141.495,117 143.162,118.5 146.5,118C 149.086,115.506 149.086,113.006 146.5,110.5C 147.496,110.414 148.329,110.748 149,111.5C 149.711,113.899 149.544,116.232 148.5,118.5C 149,118.833 149.5,119.167 150,119.5C 153.461,118.782 156.961,118.282 160.5,118C 163.386,115.794 166.053,115.627 168.5,117.5C 171.028,116.831 171.028,115.998 168.5,115C 168.833,114.667 169.167,114.333 169.5,114C 167.081,112.491 166.081,110.325 166.5,107.5C 165.5,107.5 164.5,107.5 163.5,107.5C 166.979,104.448 167.313,101.114 164.5,97.5 Z"/></g>
<g><path style="opacity:1" fill="#384565" d="M 165.5,95.5 C 171.574,97.3024 177.574,99.3024 183.5,101.5C 192.13,108.963 200.297,116.963 208,125.5C 210.26,130.951 213.26,135.951 217,140.5C 217.498,143.482 217.665,146.482 217.5,149.5C 216.691,147.708 216.191,145.708 216,143.5C 215.623,142.058 214.79,141.058 213.5,140.5C 211.968,139.323 210.468,137.989 209,136.5C 208.109,131.712 205.942,127.712 202.5,124.5C 196.732,117.564 190.399,111.064 183.5,105C 178.577,100.873 172.91,98.3729 166.5,97.5C 166.167,96.8333 165.833,96.1667 165.5,95.5 Z"/></g>
<g><path style="opacity:1" fill="#f1e483" d="M 109.5,119.5 C 108.434,121.852 107.267,124.186 106,126.5C 104.954,132.683 103.288,138.683 101,144.5C 98.5185,146.314 95.6852,146.98 92.5,146.5C 91.1639,144.99 89.9973,143.323 89,141.5C 88.0351,134.605 89.2017,128.271 92.5,122.5C 94.5159,121.514 95.8492,119.847 96.5,117.5C 98.1461,118.779 99.3128,120.445 100,122.5C 102.901,120.312 105.234,117.645 107,114.5C 108.094,116.078 108.928,117.745 109.5,119.5 Z"/></g>
<g><path style="opacity:1" fill="#a9c2c9" d="M 211.5,100.5 C 214.527,102.86 217.194,105.527 219.5,108.5C 220.942,109.82 221.608,111.486 221.5,113.5C 224.756,120.54 223.089,126.207 216.5,130.5C 216.672,129.508 216.338,128.842 215.5,128.5C 213.1,123.368 210.434,118.368 207.5,113.5C 208.8,114.108 210.133,114.775 211.5,115.5C 212.672,115.081 213.672,114.415 214.5,113.5C 215.594,114.868 215.26,116.035 213.5,117C 214.126,117.75 214.626,118.584 215,119.5C 217.321,116.942 217.654,114.275 216,111.5C 213.79,112.749 211.624,112.582 209.5,111C 211.266,109.302 213.266,107.969 215.5,107C 212.978,105.641 211.645,103.474 211.5,100.5 Z"/></g>
<g><path style="opacity:1" fill="#2c233a" d="M 117.5,110.5 C 116.184,112.822 114.851,115.156 113.5,117.5C 113.799,119.815 114.632,119.815 116,117.5C 116.5,118 117,118.5 117.5,119C 116.177,119.816 115.511,120.983 115.5,122.5C 113.956,122.297 112.622,121.63 111.5,120.5C 107.682,124.405 106.349,128.905 107.5,134C 107.406,136.954 106.906,137.121 106,134.5C 105.612,137.849 105.779,141.183 106.5,144.5C 105.178,144.67 104.011,144.337 103,143.5C 102.878,145.437 102.045,146.77 100.5,147.5C 98.597,147.796 96.9303,148.463 95.5,149.5C 94.8333,149.833 94.1667,150.167 93.5,150.5C 93.5674,149.041 93.2341,147.708 92.5,146.5C 95.6852,146.98 98.5185,146.314 101,144.5C 103.288,138.683 104.954,132.683 106,126.5C 107.267,124.186 108.434,121.852 109.5,119.5C 111.462,115.936 114.129,112.936 117.5,110.5 Z"/></g>
<g><path style="opacity:1" fill="#465b76" d="M 166.5,97.5 C 172.91,98.3729 178.577,100.873 183.5,105C 190.399,111.064 196.732,117.564 202.5,124.5C 202.5,126.167 202.5,127.833 202.5,129.5C 200.227,132.398 198.227,135.398 196.5,138.5C 194.938,132.769 193.271,127.102 191.5,121.5C 188.76,117.896 185.926,115.23 183,113.5C 181.163,110.491 179.33,107.491 177.5,104.5C 174.185,103.51 170.851,101.844 167.5,99.5C 167.167,98.8333 166.833,98.1667 166.5,97.5 Z"/></g>
<g><path style="opacity:1" fill="#251f45" d="M 123.5,111.5 C 122.189,115.606 120.022,119.273 117,122.5C 114.476,129.977 111.976,137.31 109.5,144.5C 109.579,143.07 109.246,141.736 108.5,140.5C 110.096,134.06 112.43,128.06 115.5,122.5C 115.511,120.983 116.177,119.816 117.5,119C 117,118.5 116.5,118 116,117.5C 114.632,119.815 113.799,119.815 113.5,117.5C 114.851,115.156 116.184,112.822 117.5,110.5C 118.847,111.028 120.181,111.195 121.5,111C 122.976,108.357 124.976,106.19 127.5,104.5C 128.521,105.002 128.688,105.668 128,106.5C 125.951,107.714 124.451,109.38 123.5,111.5 Z"/></g>
<g><path style="opacity:1" fill="#faebaa" d="M 175.5,123.5 C 175.53,124.497 175.03,125.164 174,125.5C 171.651,124.024 169.484,124.19 167.5,126C 170.964,127.356 174.297,128.189 177.5,128.5C 176.071,129.935 174.405,130.935 172.5,131.5C 162.832,129.751 153.165,128.084 143.5,126.5C 143.833,125.833 144.167,125.167 144.5,124.5C 148.99,120.701 154.323,119.034 160.5,119.5C 166.071,119.141 171.071,120.474 175.5,123.5 Z"/></g>
<g><path style="opacity:0.978" fill="#365276" d="M 230.5,98.5 C 238.897,108.296 244.397,119.629 247,132.5C 247.762,145.865 248.262,159.198 248.5,172.5C 248.167,172.5 247.833,172.5 247.5,172.5C 247.167,172.5 246.833,172.5 246.5,172.5C 246.5,172.167 246.5,171.833 246.5,171.5C 247.417,155.535 244.417,140.535 237.5,126.5C 235.272,120.941 232.606,115.608 229.5,110.5C 230.583,110.461 231.583,110.127 232.5,109.5C 233.281,110.729 233.781,112.062 234,113.5C 237.064,114.899 239.064,117.232 240,120.5C 240.889,121.888 241.389,121.722 241.5,120C 238.234,112.634 234.567,105.467 230.5,98.5 Z"/></g>
<g><path style="opacity:1" fill="#3f4159" d="M 183.5,101.5 C 184.873,101.343 186.207,101.51 187.5,102C 188.376,103.586 189.376,105.086 190.5,106.5C 196.095,109.926 201.262,113.926 206,118.5C 207.471,122.653 209.804,126.32 213,129.5C 216.276,138.804 217.109,138.471 215.5,128.5C 216.338,128.842 216.672,129.508 216.5,130.5C 217.809,135.074 218.809,139.74 219.5,144.5C 219.831,165.673 219.497,186.673 218.5,207.5C 218.825,199.981 218.492,192.648 217.5,185.5C 217.5,174.833 217.5,164.167 217.5,153.5C 217.5,152.167 217.5,150.833 217.5,149.5C 217.665,146.482 217.498,143.482 217,140.5C 213.26,135.951 210.26,130.951 208,125.5C 200.297,116.963 192.13,108.963 183.5,101.5 Z"/></g>
<g><path style="opacity:1" fill="#a6b4c7" d="M 221.5,113.5 C 223.316,115.118 224.649,117.118 225.5,119.5C 226.42,122.876 226.753,126.209 226.5,129.5C 225.063,133.752 223.729,138.085 222.5,142.5C 222.253,143.713 221.586,144.38 220.5,144.5C 220.167,144.5 219.833,144.5 219.5,144.5C 218.809,139.74 217.809,135.074 216.5,130.5C 223.089,126.207 224.756,120.54 221.5,113.5 Z"/></g>
<g><path style="opacity:1" fill="#454b6c" d="M 155.5,95.5 C 155.918,96.2216 156.584,96.7216 157.5,97C 153.503,97.502 149.836,98.8353 146.5,101C 143.02,103.646 139.686,106.479 136.5,109.5C 135.499,114.175 134.499,118.842 133.5,123.5C 134.383,124.548 135.05,125.715 135.5,127C 135.108,128.011 134.441,128.511 133.5,128.5C 134.309,130.071 134.643,131.738 134.5,133.5C 134.167,134.833 133.833,136.167 133.5,137.5C 132.599,138.29 131.932,139.29 131.5,140.5C 129.896,141.287 129.229,142.62 129.5,144.5C 128.063,143.275 126.396,142.275 124.5,141.5C 125.689,140.571 127.022,140.238 128.5,140.5C 128.5,139.5 128.5,138.5 128.5,137.5C 127.5,137.5 126.5,137.5 125.5,137.5C 125.963,134.629 125.963,131.796 125.5,129C 127.205,125.832 128.038,122.332 128,118.5C 129.688,114.706 131.521,111.039 133.5,107.5C 136.423,105.585 139.09,103.251 141.5,100.5C 145.779,97.6915 150.445,96.0249 155.5,95.5 Z"/></g>
<g><path style="opacity:1" fill="#4d6a80" d="M 191.5,121.5 C 193.271,127.102 194.938,132.769 196.5,138.5C 195.417,138.539 194.417,138.873 193.5,139.5C 192.832,142.306 192.166,144.972 191.5,147.5C 190.812,143.416 189.812,139.416 188.5,135.5C 189.093,132.404 188.093,130.071 185.5,128.5C 186.539,126.469 188.205,125.136 190.5,124.5C 191.127,123.583 191.461,122.583 191.5,121.5 Z"/></g>
<g><path style="opacity:1" fill="#f7e1a9" d="M 175.5,123.5 C 176.167,123.5 176.833,123.5 177.5,123.5C 178.973,125.395 180.64,127.061 182.5,128.5C 183.466,131.208 184.799,133.708 186.5,136C 182.772,138.401 179.105,138.568 175.5,136.5C 168.254,130.437 160.254,129.104 151.5,132.5C 147.081,135.009 143.414,133.842 140.5,129C 141.373,127.955 142.373,127.122 143.5,126.5C 153.165,128.084 162.832,129.751 172.5,131.5C 174.405,130.935 176.071,129.935 177.5,128.5C 174.297,128.189 170.964,127.356 167.5,126C 169.484,124.19 171.651,124.024 174,125.5C 175.03,125.164 175.53,124.497 175.5,123.5 Z"/></g>
<g><path style="opacity:1" fill="#f1cea2" d="M 144.5,124.5 C 144.167,125.167 143.833,125.833 143.5,126.5C 142.373,127.122 141.373,127.955 140.5,129C 143.414,133.842 147.081,135.009 151.5,132.5C 148.167,135.167 145.167,138.167 142.5,141.5C 140.952,141.179 140.285,140.179 140.5,138.5C 138.94,138.519 137.44,138.852 136,139.5C 134.989,138.944 134.156,138.278 133.5,137.5C 133.833,136.167 134.167,134.833 134.5,133.5C 136.804,130.859 139.138,128.192 141.5,125.5C 142.391,124.89 143.391,124.557 144.5,124.5 Z"/></g>
<g><path style="opacity:1" fill="#222136" d="M 175.5,136.5 C 177.935,139.374 179.269,142.707 179.5,146.5C 179.649,147.552 179.483,148.552 179,149.5C 178.764,147.236 178.264,145.069 177.5,143C 172.792,142.978 168.792,141.311 165.5,138C 161.52,136.126 157.52,136.126 153.5,138C 150.833,140 148.167,142 145.5,144C 143.747,146.58 142.747,149.413 142.5,152.5C 142.5,154.833 142.5,157.167 142.5,159.5C 142.167,159.5 141.833,159.5 141.5,159.5C 141.303,153.455 141.637,147.455 142.5,141.5C 145.167,138.167 148.167,135.167 151.5,132.5C 160.254,129.104 168.254,130.437 175.5,136.5 Z"/></g>
<g><path style="opacity:1" fill="#4a5b7b" d="M 202.5,129.5 C 203.922,133.355 205.088,137.355 206,141.5C 206.667,143.5 206.667,145.5 206,147.5C 203.116,149.526 199.949,150.859 196.5,151.5C 195.006,151.291 193.839,150.624 193,149.5C 192.722,150.416 192.222,151.082 191.5,151.5C 191.5,150.167 191.5,148.833 191.5,147.5C 192.166,144.972 192.832,142.306 193.5,139.5C 194.417,138.873 195.417,138.539 196.5,138.5C 198.227,135.398 200.227,132.398 202.5,129.5 Z"/></g>
<g><path style="opacity:1" fill="#495374" d="M 202.5,124.5 C 205.942,127.712 208.109,131.712 209,136.5C 210.468,137.989 211.968,139.323 213.5,140.5C 213.449,145.363 211.782,149.529 208.5,153C 203.622,154.809 198.622,156.475 193.5,158C 195.78,158.233 197.78,159.066 199.5,160.5C 200.386,159.675 200.719,158.675 200.5,157.5C 201.833,157.5 203.167,157.5 204.5,157.5C 204.5,158.5 204.5,159.5 204.5,160.5C 203.325,160.281 202.325,160.614 201.5,161.5C 203.404,162.766 204.737,164.433 205.5,166.5C 205.5,167.167 205.5,167.833 205.5,168.5C 204.272,167.694 203.272,166.694 202.5,165.5C 202.167,164.5 201.5,163.833 200.5,163.5C 197.943,161.393 194.943,160.059 191.5,159.5C 191.5,156.833 191.5,154.167 191.5,151.5C 192.222,151.082 192.722,150.416 193,149.5C 193.839,150.624 195.006,151.291 196.5,151.5C 199.949,150.859 203.116,149.526 206,147.5C 206.667,145.5 206.667,143.5 206,141.5C 205.088,137.355 203.922,133.355 202.5,129.5C 202.5,127.833 202.5,126.167 202.5,124.5 Z"/></g>
<g><path style="opacity:1" fill="#ca63a4" d="M 237.5,126.5 C 244.417,140.535 247.417,155.535 246.5,171.5C 245.624,171.631 244.957,171.298 244.5,170.5C 245.606,166.223 245.772,161.89 245,157.5C 241.597,150.902 239.264,143.902 238,136.5C 237.667,135.833 237.333,135.167 237,134.5C 236.768,135.737 236.268,136.737 235.5,137.5C 234.126,131.664 232.292,125.998 230,120.5C 226.143,117.651 223.477,113.985 222,109.5C 221.329,108.748 220.496,108.414 219.5,108.5C 219.351,107.448 219.517,106.448 220,105.5C 222.744,107.984 224.744,110.984 226,114.5C 229.737,119.325 233.57,123.325 237.5,126.5 Z"/></g>
<g><path style="opacity:1" fill="#a6abc4" d="M 225.5,119.5 C 228.597,125.051 230.597,131.051 231.5,137.5C 231.5,139.833 231.5,142.167 231.5,144.5C 230.732,145.263 230.232,146.263 230,147.5C 229.667,145.833 229.333,144.167 229,142.5C 228.83,144.715 228.163,146.715 227,148.5C 226.195,146.099 225.362,146.266 224.5,149C 223.552,149.483 222.552,149.649 221.5,149.5C 221.737,148.209 221.404,147.209 220.5,146.5C 220.5,145.833 220.5,145.167 220.5,144.5C 221.586,144.38 222.253,143.713 222.5,142.5C 223.729,138.085 225.063,133.752 226.5,129.5C 226.753,126.209 226.42,122.876 225.5,119.5 Z"/></g>
<g><path style="opacity:1" fill="#2d2f49" d="M 179.5,146.5 C 180.485,150.634 180.818,154.968 180.5,159.5C 179.833,159.5 179.167,159.5 178.5,159.5C 177.25,151.253 172.916,145.253 165.5,141.5C 161.958,141.362 158.292,141.695 154.5,142.5C 150.504,145.811 146.504,149.144 142.5,152.5C 142.747,149.413 143.747,146.58 145.5,144C 148.167,142 150.833,140 153.5,138C 157.52,136.126 161.52,136.126 165.5,138C 168.792,141.311 172.792,142.978 177.5,143C 178.264,145.069 178.764,147.236 179,149.5C 179.483,148.552 179.649,147.552 179.5,146.5 Z"/></g>
<g><path style="opacity:1" fill="#474d72" d="M 213.5,140.5 C 214.79,141.058 215.623,142.058 216,143.5C 216.191,145.708 216.691,147.708 217.5,149.5C 217.5,150.833 217.5,152.167 217.5,153.5C 216.02,155.858 214.353,158.191 212.5,160.5C 210.892,161.318 209.225,161.985 207.5,162.5C 206.828,163.949 206.161,165.282 205.5,166.5C 204.737,164.433 203.404,162.766 201.5,161.5C 202.325,160.614 203.325,160.281 204.5,160.5C 204.5,159.5 204.5,158.5 204.5,157.5C 203.167,157.5 201.833,157.5 200.5,157.5C 200.719,158.675 200.386,159.675 199.5,160.5C 197.78,159.066 195.78,158.233 193.5,158C 198.622,156.475 203.622,154.809 208.5,153C 211.782,149.529 213.449,145.363 213.5,140.5 Z"/></g>
<g><path style="opacity:1" fill="#54476e" d="M 92.5,146.5 C 93.2341,147.708 93.5674,149.041 93.5,150.5C 92.4331,152.879 93.4331,153.879 96.5,153.5C 96.7759,156.719 98.1093,159.385 100.5,161.5C 97.1233,160.298 94.4566,158.131 92.5,155C 89.3873,155.053 86.8873,153.886 85,151.5C 84.3208,147.961 83.1542,144.628 81.5,141.5C 80.992,138.611 80.3253,135.778 79.5,133C 79.5116,127.495 82.1783,124.328 87.5,123.5C 89.2791,127.934 88.6125,131.934 85.5,135.5C 86.0742,138.177 86.7408,140.843 87.5,143.5C 88.7258,145.278 90.3925,146.278 92.5,146.5 Z"/></g>
<g><path style="opacity:1" fill="#413b61" d="M 133.5,107.5 C 131.521,111.039 129.688,114.706 128,118.5C 128.038,122.332 127.205,125.832 125.5,129C 125.963,131.796 125.963,134.629 125.5,137.5C 126.5,137.5 127.5,137.5 128.5,137.5C 128.5,138.5 128.5,139.5 128.5,140.5C 127.022,140.238 125.689,140.571 124.5,141.5C 126.396,142.275 128.063,143.275 129.5,144.5C 127.867,148.352 126.533,152.352 125.5,156.5C 123.902,155.515 122.235,155.349 120.5,156C 123.028,157.316 123.028,158.483 120.5,159.5C 119.735,158.388 118.735,157.721 117.5,157.5C 116.613,153.792 116.446,150.125 117,146.5C 116.586,146.043 116.086,145.709 115.5,145.5C 114.719,146.729 114.219,148.062 114,149.5C 113.617,148.944 113.117,148.611 112.5,148.5C 115.725,139.585 118.892,130.585 122,121.5C 124.091,118.26 125.924,114.926 127.5,111.5C 129.795,110.525 131.795,109.192 133.5,107.5 Z"/></g>
<g><path style="opacity:0.824" fill="#c69d89" d="M 255.5,140.5 C 257.199,140.34 258.866,140.506 260.5,141C 261.813,144.692 260.48,146.359 256.5,146C 254.17,144.512 253.836,142.679 255.5,140.5 Z"/></g>
<g><path style="opacity:1" fill="#eeaba4" d="M 133.5,137.5 C 134.156,138.278 134.989,138.944 136,139.5C 137.44,138.852 138.94,138.519 140.5,138.5C 140.285,140.179 140.952,141.179 142.5,141.5C 141.637,147.455 141.303,153.455 141.5,159.5C 141.5,159.833 141.5,160.167 141.5,160.5C 137.833,160.5 134.167,160.5 130.5,160.5C 130.244,153.776 130.577,147.109 131.5,140.5C 131.932,139.29 132.599,138.29 133.5,137.5 Z"/></g>
<g><path style="opacity:1" fill="#3a405e" d="M 178.5,159.5 C 176.784,159.371 175.117,159.038 173.5,158.5C 173.923,157.735 174.257,156.902 174.5,156C 171.523,150.335 166.856,146.835 160.5,145.5C 154.474,146.863 150.474,150.53 148.5,156.5C 146.668,157.057 145.335,158.057 144.5,159.5C 143.833,159.5 143.167,159.5 142.5,159.5C 142.5,157.167 142.5,154.833 142.5,152.5C 146.504,149.144 150.504,145.811 154.5,142.5C 158.292,141.695 161.958,141.362 165.5,141.5C 172.916,145.253 177.25,151.253 178.5,159.5 Z"/></g>
<g><path style="opacity:1" fill="#f5c3b2" d="M 182.5,128.5 C 184.737,130.647 186.737,132.98 188.5,135.5C 189.812,139.416 190.812,143.416 191.5,147.5C 191.5,148.833 191.5,150.167 191.5,151.5C 191.5,154.167 191.5,156.833 191.5,159.5C 187.833,159.5 184.167,159.5 180.5,159.5C 180.818,154.968 180.485,150.634 179.5,146.5C 179.269,142.707 177.935,139.374 175.5,136.5C 179.105,138.568 182.772,138.401 186.5,136C 184.799,133.708 183.466,131.208 182.5,128.5 Z"/></g>
<g><path style="opacity:1" fill="#afa3be" d="M 231.5,144.5 C 231.766,148.571 231.433,152.571 230.5,156.5C 228.446,158.256 226.279,158.59 224,157.5C 222.169,159.582 221.002,161.915 220.5,164.5C 220.5,158.5 220.5,152.5 220.5,146.5C 221.404,147.209 221.737,148.209 221.5,149.5C 222.552,149.649 223.552,149.483 224.5,149C 225.362,146.266 226.195,146.099 227,148.5C 228.163,146.715 228.83,144.715 229,142.5C 229.333,144.167 229.667,145.833 230,147.5C 230.232,146.263 230.732,145.263 231.5,144.5 Z"/></g>
<g><path style="opacity:1" fill="#251e46" d="M 115.5,122.5 C 112.43,128.06 110.096,134.06 108.5,140.5C 109.246,141.736 109.579,143.07 109.5,144.5C 107.39,147.975 105.557,151.642 104,155.5C 102.544,152.968 101.377,150.301 100.5,147.5C 102.045,146.77 102.878,145.437 103,143.5C 104.011,144.337 105.178,144.67 106.5,144.5C 105.779,141.183 105.612,137.849 106,134.5C 106.906,137.121 107.406,136.954 107.5,134C 106.349,128.905 107.682,124.405 111.5,120.5C 112.622,121.63 113.956,122.297 115.5,122.5 Z"/></g>
<g><path style="opacity:1" fill="#312a51" d="M 123.5,111.5 C 124.833,111.5 126.167,111.5 127.5,111.5C 125.924,114.926 124.091,118.26 122,121.5C 118.892,130.585 115.725,139.585 112.5,148.5C 111.566,149.568 111.232,150.901 111.5,152.5C 107.65,152.701 106.65,154.534 108.5,158C 107.874,158.75 107.374,159.584 107,160.5C 106.329,159.748 105.496,159.414 104.5,159.5C 102.958,157.12 100.958,155.12 98.5,153.5C 99.2617,151.219 98.2617,149.886 95.5,149.5C 96.9303,148.463 98.597,147.796 100.5,147.5C 101.377,150.301 102.544,152.968 104,155.5C 105.557,151.642 107.39,147.975 109.5,144.5C 111.976,137.31 114.476,129.977 117,122.5C 120.022,119.273 122.189,115.606 123.5,111.5 Z"/></g>
<g><path style="opacity:1" fill="#586a80" d="M 173.5,158.5 C 175.117,159.038 176.784,159.371 178.5,159.5C 179.167,159.5 179.833,159.5 180.5,159.5C 167.677,160.495 154.677,160.829 141.5,160.5C 141.5,160.167 141.5,159.833 141.5,159.5C 141.833,159.5 142.167,159.5 142.5,159.5C 143.167,159.5 143.833,159.5 144.5,159.5C 147.187,159.664 149.854,159.497 152.5,159C 151.5,158.667 150.5,158.333 149.5,158C 151.134,157.506 152.801,157.34 154.5,157.5C 155.332,150.546 158.999,148.713 165.5,152C 168.078,154.386 170.744,156.553 173.5,158.5 Z"/></g>
<g><path style="opacity:1" fill="#485674" d="M 173.5,158.5 C 170.744,156.553 168.078,154.386 165.5,152C 158.999,148.713 155.332,150.546 154.5,157.5C 152.801,157.34 151.134,157.506 149.5,158C 150.5,158.333 151.5,158.667 152.5,159C 149.854,159.497 147.187,159.664 144.5,159.5C 145.335,158.057 146.668,157.057 148.5,156.5C 150.474,150.53 154.474,146.863 160.5,145.5C 166.856,146.835 171.523,150.335 174.5,156C 174.257,156.902 173.923,157.735 173.5,158.5 Z"/></g>
<g><path style="opacity:1" fill="#453854" d="M 131.5,140.5 C 130.577,147.109 130.244,153.776 130.5,160.5C 128.5,160.5 126.5,160.5 124.5,160.5C 122.273,162.607 120.273,164.94 118.5,167.5C 117.496,168.683 116.662,170.016 116,171.5C 115.5,179.493 115.334,187.493 115.5,195.5C 114.808,186.629 114.141,177.629 113.5,168.5C 115.022,166.844 114.689,165.677 112.5,165C 113.991,162.978 113.658,161.312 111.5,160C 113.488,159.062 115.488,158.228 117.5,157.5C 118.735,157.721 119.735,158.388 120.5,159.5C 123.028,158.483 123.028,157.316 120.5,156C 122.235,155.349 123.902,155.515 125.5,156.5C 126.533,152.352 127.867,148.352 129.5,144.5C 129.229,142.62 129.896,141.287 131.5,140.5 Z"/></g>
<g><path style="opacity:1" fill="#933674" d="M 219.5,108.5 C 220.496,108.414 221.329,108.748 222,109.5C 223.477,113.985 226.143,117.651 230,120.5C 232.292,125.998 234.126,131.664 235.5,137.5C 235.695,144.67 236.028,151.837 236.5,159C 236.358,165.577 235.691,172.077 234.5,178.5C 234.5,179.167 234.5,179.833 234.5,180.5C 233.778,180.918 233.278,181.584 233,182.5C 232.501,176.509 232.334,170.509 232.5,164.5C 232.827,155.318 232.493,146.318 231.5,137.5C 230.597,131.051 228.597,125.051 225.5,119.5C 224.649,117.118 223.316,115.118 221.5,113.5C 221.608,111.486 220.942,109.82 219.5,108.5 Z"/></g>
<g><path style="opacity:1" fill="#755483" d="M 81.5,141.5 C 83.1542,144.628 84.3208,147.961 85,151.5C 86.8873,153.886 89.3873,155.053 92.5,155C 94.4566,158.131 97.1233,160.298 100.5,161.5C 101.167,163.167 101.833,164.833 102.5,166.5C 104.635,176.565 104.968,186.565 103.5,196.5C 103.5,196.167 103.5,195.833 103.5,195.5C 103.83,188.8 103.497,182.134 102.5,175.5C 98.5736,168.748 93.2403,163.581 86.5,160C 85.8095,158.933 85.3095,157.766 85,156.5C 82.1445,154.726 79.6445,152.726 77.5,150.5C 77.3433,149.127 77.51,147.793 78,146.5C 78.3333,146.833 78.6667,147.167 79,147.5C 79.5662,145.277 80.3995,143.277 81.5,141.5 Z"/></g>
<g><path style="opacity:1" fill="#f4daa6" d="M 180.5,159.5 C 184.167,159.5 187.833,159.5 191.5,159.5C 194.943,160.059 197.943,161.393 200.5,163.5C 199.791,164.404 198.791,164.737 197.5,164.5C 195.813,162.834 193.813,161.5 191.5,160.5C 169.186,160.819 147.186,161.819 125.5,163.5C 125.5,168.833 125.5,174.167 125.5,179.5C 124.51,173.355 124.177,167.022 124.5,160.5C 126.5,160.5 128.5,160.5 130.5,160.5C 134.167,160.5 137.833,160.5 141.5,160.5C 154.677,160.829 167.677,160.495 180.5,159.5 Z"/></g>
<g><path style="opacity:1" fill="#fcdf98" d="M 197.5,164.5 C 188.827,164.334 180.16,164.5 171.5,165C 169.567,165.251 167.734,165.751 166,166.5C 161.263,165.531 156.43,165.197 151.5,165.5C 145.31,165.177 139.31,165.51 133.5,166.5C 131.596,166.738 130.262,167.738 129.5,169.5C 128.85,169.804 128.183,170.137 127.5,170.5C 126.832,168.031 126.165,165.698 125.5,163.5C 147.186,161.819 169.186,160.819 191.5,160.5C 193.813,161.5 195.813,162.834 197.5,164.5 Z"/></g>
<g><path style="opacity:1" fill="#b893b5" d="M 231.5,137.5 C 232.493,146.318 232.827,155.318 232.5,164.5C 231.065,165.79 230.065,167.456 229.5,169.5C 228.481,168.313 227.314,167.313 226,166.5C 225.333,167.833 224.667,169.167 224,170.5C 223.751,169.376 223.251,168.376 222.5,167.5C 221.833,173.988 221.167,180.321 220.5,186.5C 220.5,179.167 220.5,171.833 220.5,164.5C 221.002,161.915 222.169,159.582 224,157.5C 226.279,158.59 228.446,158.256 230.5,156.5C 231.433,152.571 231.766,148.571 231.5,144.5C 231.5,142.167 231.5,139.833 231.5,137.5 Z"/></g>
<g><path style="opacity:1" fill="#f5c59e" d="M 200.5,163.5 C 201.5,163.833 202.167,164.5 202.5,165.5C 202.134,166.695 201.301,167.361 200,167.5C 189.491,167.308 178.657,167.308 167.5,167.5C 162.014,166.982 156.681,166.315 151.5,165.5C 156.43,165.197 161.263,165.531 166,166.5C 167.734,165.751 169.567,165.251 171.5,165C 180.16,164.5 188.827,164.334 197.5,164.5C 198.791,164.737 199.791,164.404 200.5,163.5 Z"/></g>
<g><path style="opacity:1" fill="#454368" d="M 217.5,153.5 C 217.5,164.167 217.5,174.833 217.5,185.5C 216.795,181.738 215.128,178.405 212.5,175.5C 211.914,175.709 211.414,176.043 211,176.5C 209.669,174.004 207.836,172.004 205.5,170.5C 205.5,169.833 205.5,169.167 205.5,168.5C 205.5,167.833 205.5,167.167 205.5,166.5C 206.161,165.282 206.828,163.949 207.5,162.5C 209.225,161.985 210.892,161.318 212.5,160.5C 214.353,158.191 216.02,155.858 217.5,153.5 Z"/></g>
<g><path style="opacity:1" fill="#a46084" d="M 77.5,154.5 C 78.6751,155.974 79.6751,157.64 80.5,159.5C 81.086,159.291 81.586,158.957 82,158.5C 85.6603,160.409 88.827,162.909 91.5,166C 92.448,166.483 93.448,166.649 94.5,166.5C 94.3505,167.552 94.5172,168.552 95,169.5C 96.8209,172.263 98.9876,174.763 101.5,177C 100.934,177.995 100.267,178.828 99.5,179.5C 98.7211,177.073 97.5545,177.073 96,179.5C 95.5078,178.451 95.6744,177.451 96.5,176.5C 95.0921,175.757 93.7588,174.923 92.5,174C 93.6405,173.259 93.6405,172.425 92.5,171.5C 90.0038,170.42 87.6705,169.086 85.5,167.5C 84.6143,166.675 84.281,165.675 84.5,164.5C 83.5,164.5 82.5,164.5 81.5,164.5C 81.5,163.167 81.5,161.833 81.5,160.5C 80.5,160.5 79.5,160.5 78.5,160.5C 78.1667,158.5 77.8333,156.5 77.5,154.5 Z"/></g>
<g><path style="opacity:1" fill="#cc4a8b" d="M 246.5,171.5 C 246.5,171.833 246.5,172.167 246.5,172.5C 242.584,171.961 239.584,173.294 237.5,176.5C 236.5,177.167 235.5,177.833 234.5,178.5C 235.691,172.077 236.358,165.577 236.5,159C 236.028,151.837 235.695,144.67 235.5,137.5C 236.268,136.737 236.768,135.737 237,134.5C 237.333,135.167 237.667,135.833 238,136.5C 239.264,143.902 241.597,150.902 245,157.5C 245.772,161.89 245.606,166.223 244.5,170.5C 244.957,171.298 245.624,171.631 246.5,171.5 Z"/></g>
<g><path style="opacity:0.016" fill="#8b828a" d="M 67.5,169.5 C 70.0009,169.511 70.1676,170.178 68,171.5C 67.5357,170.906 67.369,170.239 67.5,169.5 Z"/></g>
<g><path style="opacity:1" fill="#9a608b" d="M 77.5,150.5 C 79.6445,152.726 82.1445,154.726 85,156.5C 85.3095,157.766 85.8095,158.933 86.5,160C 93.2403,163.581 98.5736,168.748 102.5,175.5C 103.497,182.134 103.83,188.8 103.5,195.5C 103.167,195.5 102.833,195.5 102.5,195.5C 102.077,192.231 102.077,189.064 102.5,186C 101.8,183.632 100.8,181.466 99.5,179.5C 100.267,178.828 100.934,177.995 101.5,177C 98.9876,174.763 96.8209,172.263 95,169.5C 94.5172,168.552 94.3505,167.552 94.5,166.5C 93.448,166.649 92.448,166.483 91.5,166C 88.827,162.909 85.6603,160.409 82,158.5C 81.586,158.957 81.086,159.291 80.5,159.5C 79.6751,157.64 78.6751,155.974 77.5,154.5C 77.5,153.167 77.5,151.833 77.5,150.5 Z"/></g>
<g><path style="opacity:1" fill="#3b2e53" d="M 117.5,157.5 C 115.488,158.228 113.488,159.062 111.5,160C 113.658,161.312 113.991,162.978 112.5,165C 114.689,165.677 115.022,166.844 113.5,168.5C 114.141,177.629 114.808,186.629 115.5,195.5C 115.5,195.833 115.5,196.167 115.5,196.5C 115.768,198.099 115.434,199.432 114.5,200.5C 113.167,201.167 112.167,202.167 111.5,203.5C 110.25,203.423 109.417,202.756 109,201.5C 108.667,190.833 108.333,180.167 108,169.5C 105.985,166.469 104.819,163.136 104.5,159.5C 105.496,159.414 106.329,159.748 107,160.5C 107.374,159.584 107.874,158.75 108.5,158C 106.65,154.534 107.65,152.701 111.5,152.5C 111.232,150.901 111.566,149.568 112.5,148.5C 113.117,148.611 113.617,148.944 114,149.5C 114.219,148.062 114.719,146.729 115.5,145.5C 116.086,145.709 116.586,146.043 117,146.5C 116.446,150.125 116.613,153.792 117.5,157.5 Z"/></g>
<g><path style="opacity:1" fill="#ab5092" d="M 112.5,152.5 C 114.912,152.694 115.912,154.027 115.5,156.5C 113.396,156.799 111.396,156.466 109.5,155.5C 110.77,154.712 111.77,153.712 112.5,152.5 Z"/></g>
<g><path style="opacity:1" fill="#ad7071" d="M 124.5,160.5 C 124.177,167.022 124.51,173.355 125.5,179.5C 123.735,180.461 121.735,180.795 119.5,180.5C 119.818,175.968 119.485,171.634 118.5,167.5C 120.273,164.94 122.273,162.607 124.5,160.5 Z"/></g>
<g><path style="opacity:1" fill="#d6866a" d="M 133.5,166.5 C 143.193,166.761 152.859,167.427 162.5,168.5C 159.893,169.318 157.226,169.818 154.5,170C 158.574,171.54 158.907,172.873 155.5,174C 156.337,175.011 156.67,176.178 156.5,177.5C 153.22,180.405 151.887,184.071 152.5,188.5C 151.848,187.551 151.514,186.385 151.5,185C 151.766,180.442 152.766,176.109 154.5,172C 148.41,171.885 142.576,173.051 137,175.5C 135.413,174.273 134.079,174.606 133,176.5C 131.45,175.409 130.283,174.076 129.5,172.5C 129.5,172.167 129.5,171.833 129.5,171.5C 129.5,170.833 129.5,170.167 129.5,169.5C 130.262,167.738 131.596,166.738 133.5,166.5 Z"/></g>
<g><path style="opacity:1" fill="#f7b8a5" d="M 202.5,165.5 C 203.272,166.694 204.272,167.694 205.5,168.5C 205.5,169.167 205.5,169.833 205.5,170.5C 205.5,171.5 205.5,172.5 205.5,173.5C 205.5,174.5 205.5,175.5 205.5,176.5C 204.566,175.432 204.232,174.099 204.5,172.5C 194.118,173.303 184.118,173.303 174.5,172.5C 171.865,171.189 169.531,169.522 167.5,167.5C 178.657,167.308 189.491,167.308 200,167.5C 201.301,167.361 202.134,166.695 202.5,165.5 Z"/></g>
<g><path style="opacity:1" fill="#df906e" d="M 133.5,166.5 C 139.31,165.51 145.31,165.177 151.5,165.5C 156.681,166.315 162.014,166.982 167.5,167.5C 169.531,169.522 171.865,171.189 174.5,172.5C 175.167,173.5 175.833,174.5 176.5,175.5C 174.833,175.5 173.167,175.5 171.5,175.5C 171.551,177.57 170.885,179.403 169.5,181C 170.322,183.434 170.656,185.934 170.5,188.5C 170.167,188.5 169.833,188.5 169.5,188.5C 169.82,179.493 165.487,175.827 156.5,177.5C 156.67,176.178 156.337,175.011 155.5,174C 158.907,172.873 158.574,171.54 154.5,170C 157.226,169.818 159.893,169.318 162.5,168.5C 152.859,167.427 143.193,166.761 133.5,166.5 Z"/></g>
<g><path style="opacity:1" fill="#f9d874" d="M 82.5,169.5 C 87.1026,174.605 91.936,179.605 97,184.5C 99.4974,187.915 101.331,191.581 102.5,195.5C 102.5,203.5 102.5,211.5 102.5,219.5C 101.671,212.679 101.171,205.679 101,198.5C 100.781,197.062 100.281,195.729 99.5,194.5C 97.3539,201.843 96.0205,209.51 95.5,217.5C 95.8245,210.313 95.4912,203.313 94.5,196.5C 91.4465,191.657 87.9465,191.324 84,195.5C 82.5899,201.379 82.0899,207.379 82.5,213.5C 80.6565,215.279 79.9898,217.612 80.5,220.5C 79.7784,220.082 79.2784,219.416 79,218.5C 78.1234,224.315 78.6234,229.982 80.5,235.5C 79.8333,235.5 79.1667,235.5 78.5,235.5C 78.5,235.167 78.5,234.833 78.5,234.5C 77.5318,212.2 77.1984,189.866 77.5,167.5C 77.3505,166.448 77.5172,165.448 78,164.5C 78.6971,166.923 80.1971,168.589 82.5,169.5 Z"/></g>
<g><path style="opacity:1" fill="#f8ab9f" d="M 174.5,172.5 C 184.118,173.303 194.118,173.303 204.5,172.5C 204.232,174.099 204.566,175.432 205.5,176.5C 205.5,177.167 205.5,177.833 205.5,178.5C 197.313,178.206 189.313,178.206 181.5,178.5C 180.078,177.075 178.411,176.075 176.5,175.5C 175.833,174.5 175.167,173.5 174.5,172.5 Z"/></g>
<g><path style="opacity:0.618" fill="#d3bd84" d="M 74.5,157.5 C 75.8653,160.736 76.8653,164.069 77.5,167.5C 77.1984,189.866 77.5318,212.2 78.5,234.5C 77.7784,234.082 77.2784,233.416 77,232.5C 76.6667,211.167 76.3333,189.833 76,168.5C 75.2811,164.855 74.7811,161.188 74.5,157.5 Z"/></g>
<g><path style="opacity:1" fill="#de8861" d="M 152.5,188.5 C 154.452,192.355 155.785,196.355 156.5,200.5C 156.167,200.5 155.833,200.5 155.5,200.5C 155.768,198.901 155.434,197.568 154.5,196.5C 153.752,194.668 152.752,193.001 151.5,191.5C 150.85,189.565 150.517,187.565 150.5,185.5C 149.5,185.5 148.5,185.5 147.5,185.5C 147.714,183.856 147.38,182.356 146.5,181C 141.299,179.34 136.132,179.506 131,181.5C 129.608,178.722 129.108,175.722 129.5,172.5C 130.283,174.076 131.45,175.409 133,176.5C 134.079,174.606 135.413,174.273 137,175.5C 142.576,173.051 148.41,171.885 154.5,172C 152.766,176.109 151.766,180.442 151.5,185C 151.514,186.385 151.848,187.551 152.5,188.5 Z"/></g>
<g><path style="opacity:1" fill="#ea8d6a" d="M 176.5,175.5 C 178.411,176.075 180.078,177.075 181.5,178.5C 181.259,181.034 182.259,182.7 184.5,183.5C 184.5,185.167 184.5,186.833 184.5,188.5C 184.573,190.027 183.906,191.027 182.5,191.5C 183.263,187.591 181.93,186.258 178.5,187.5C 173.251,183.472 171.917,183.972 174.5,189C 174.167,189.5 173.833,190 173.5,190.5C 172.735,189.388 171.735,188.721 170.5,188.5C 170.656,185.934 170.322,183.434 169.5,181C 170.885,179.403 171.551,177.57 171.5,175.5C 173.167,175.5 174.833,175.5 176.5,175.5 Z"/></g>
<g><path style="opacity:1" fill="#ab637b" d="M 78.5,160.5 C 79.5,160.5 80.5,160.5 81.5,160.5C 81.5,161.833 81.5,163.167 81.5,164.5C 82.5,164.5 83.5,164.5 84.5,164.5C 84.281,165.675 84.6143,166.675 85.5,167.5C 87.6705,169.086 90.0038,170.42 92.5,171.5C 93.6405,172.425 93.6405,173.259 92.5,174C 93.7588,174.923 95.0921,175.757 96.5,176.5C 95.6744,177.451 95.5078,178.451 96,179.5C 97.5545,177.073 98.7211,177.073 99.5,179.5C 100.8,181.466 101.8,183.632 102.5,186C 102.077,189.064 102.077,192.231 102.5,195.5C 101.331,191.581 99.4974,187.915 97,184.5C 91.936,179.605 87.1026,174.605 82.5,169.5C 80.886,166.607 79.5527,163.607 78.5,160.5 Z"/></g>
<g><path style="opacity:1" fill="#43375d" d="M 205.5,170.5 C 207.836,172.004 209.669,174.004 211,176.5C 211.414,176.043 211.914,175.709 212.5,175.5C 215.128,178.405 216.795,181.738 217.5,185.5C 218.492,192.648 218.825,199.981 218.5,207.5C 217.134,204.111 215.467,200.777 213.5,197.5C 210.248,198.761 207.248,200.428 204.5,202.5C 204.5,200.833 204.5,199.167 204.5,197.5C 206.033,193.104 206.7,188.437 206.5,183.5C 206.498,179.982 206.165,176.649 205.5,173.5C 205.5,172.5 205.5,171.5 205.5,170.5 Z"/></g>
<g><path style="opacity:1" fill="#f4a992" d="M 246.5,172.5 C 246.833,172.5 247.167,172.5 247.5,172.5C 244.699,175.408 242.366,178.742 240.5,182.5C 238.621,183.341 236.621,183.675 234.5,183.5C 234.5,182.5 234.5,181.5 234.5,180.5C 234.5,179.833 234.5,179.167 234.5,178.5C 235.5,177.833 236.5,177.167 237.5,176.5C 239.584,173.294 242.584,171.961 246.5,172.5 Z"/></g>
<g><path style="opacity:1" fill="#fbcd8e" d="M 237.5,176.5 C 239.311,175.178 241.311,174.678 243.5,175C 241.833,177.333 240.167,179.667 238.5,182C 237.552,182.483 236.552,182.649 235.5,182.5C 235.704,180.315 236.37,178.315 237.5,176.5 Z"/></g>
<g><path style="opacity:1" fill="#c67fab" d="M 232.5,164.5 C 232.334,170.509 232.501,176.509 233,182.5C 233.278,181.584 233.778,180.918 234.5,180.5C 234.5,181.5 234.5,182.5 234.5,183.5C 233.513,188.305 233.179,193.305 233.5,198.5C 233.5,205.167 233.5,211.833 233.5,218.5C 232.662,218.158 232.328,217.492 232.5,216.5C 232.5,212.833 232.5,209.167 232.5,205.5C 232.718,199.601 231.884,193.934 230,188.5C 229.506,190.134 229.34,191.801 229.5,193.5C 227.549,193.227 226.049,193.893 225,195.5C 224.553,189.011 223.553,189.011 222,195.5C 221.501,199.821 221.334,204.154 221.5,208.5C 221.167,208.5 220.833,208.5 220.5,208.5C 220.5,201.167 220.5,193.833 220.5,186.5C 221.167,180.321 221.833,173.988 222.5,167.5C 223.251,168.376 223.751,169.376 224,170.5C 224.667,169.167 225.333,167.833 226,166.5C 227.314,167.313 228.481,168.313 229.5,169.5C 230.065,167.456 231.065,165.79 232.5,164.5 Z"/></g>
<g><path style="opacity:1" fill="#d47495" d="M 247.5,172.5 C 247.833,172.5 248.167,172.5 248.5,172.5C 249.828,173.507 250.828,174.84 251.5,176.5C 250.533,178.79 249.2,180.79 247.5,182.5C 245.167,182.5 242.833,182.5 240.5,182.5C 242.366,178.742 244.699,175.408 247.5,172.5 Z"/></g>
<g><path style="opacity:1" fill="#f59394" d="M 205.5,178.5 C 205.249,180.17 204.582,181.67 203.5,183C 197.175,183.5 190.842,183.666 184.5,183.5C 182.259,182.7 181.259,181.034 181.5,178.5C 189.313,178.206 197.313,178.206 205.5,178.5 Z"/></g>
<g><path style="opacity:1" fill="#e98657" d="M 129.5,171.5 C 129.5,171.833 129.5,172.167 129.5,172.5C 129.108,175.722 129.608,178.722 131,181.5C 136.132,179.506 141.299,179.34 146.5,181C 147.38,182.356 147.714,183.856 147.5,185.5C 148.5,185.5 149.5,185.5 150.5,185.5C 150.517,187.565 150.85,189.565 151.5,191.5C 149.726,192.881 148.226,192.548 147,190.5C 146.586,190.957 146.086,191.291 145.5,191.5C 141.554,189.838 137.554,189.504 133.5,190.5C 131.931,189.286 131.098,187.619 131,185.5C 130.517,186.448 130.351,187.448 130.5,188.5C 128.981,185.474 128.315,182.141 128.5,178.5C 128.503,175.975 128.837,173.641 129.5,171.5 Z"/></g>
<g><path style="opacity:1" fill="#261537" d="M 156.5,177.5 C 165.487,175.827 169.82,179.493 169.5,188.5C 169.34,190.153 168.674,191.486 167.5,192.5C 167.5,188.833 167.5,185.167 167.5,181.5C 165.876,181.64 164.71,180.973 164,179.5C 162.933,180.191 161.766,180.691 160.5,181C 162.167,182 163.5,183.333 164.5,185C 163.833,185.333 163.167,185.667 162.5,186C 164.074,186.336 165.408,187.169 166.5,188.5C 164.577,189.308 162.577,189.808 160.5,190C 159.833,191.333 158.833,192.333 157.5,193C 158.423,195.041 158.756,197.208 158.5,199.5C 157.833,199.833 157.167,200.167 156.5,200.5C 155.785,196.355 154.452,192.355 152.5,188.5C 151.887,184.071 153.22,180.405 156.5,177.5 Z"/></g>
<g><path style="opacity:0.596" fill="#8d838e" d="M 63.5,182.5 C 67.1611,182.426 67.8277,183.426 65.5,185.5C 64.0815,184.995 63.4148,183.995 63.5,182.5 Z"/></g>
<g><path style="opacity:1" fill="#1d133c" d="M 167.5,192.5 C 163.555,191.573 160.888,192.906 159.5,196.5C 159.833,196.833 160.167,197.167 160.5,197.5C 161.287,196.758 161.953,195.925 162.5,195C 163.332,194.312 163.998,194.479 164.5,195.5C 163.066,198.047 161.4,200.381 159.5,202.5C 160.359,207.415 160.692,212.248 160.5,217C 159.552,217.483 158.552,217.649 157.5,217.5C 157.425,211.471 157.759,205.471 158.5,199.5C 158.756,197.208 158.423,195.041 157.5,193C 158.833,192.333 159.833,191.333 160.5,190C 162.577,189.808 164.577,189.308 166.5,188.5C 165.408,187.169 164.074,186.336 162.5,186C 163.167,185.667 163.833,185.333 164.5,185C 163.5,183.333 162.167,182 160.5,181C 161.766,180.691 162.933,180.191 164,179.5C 164.71,180.973 165.876,181.64 167.5,181.5C 167.5,185.167 167.5,188.833 167.5,192.5 Z"/></g>
<g><path style="opacity:1" fill="#eb7e8d" d="M 205.5,173.5 C 206.165,176.649 206.498,179.982 206.5,183.5C 206.7,188.437 206.033,193.104 204.5,197.5C 195.833,197.5 187.167,197.5 178.5,197.5C 178.5,196.833 178.833,196.5 179.5,196.5C 187.833,196.5 196.167,196.5 204.5,196.5C 204.665,193.482 204.498,190.482 204,187.5C 197.682,187.713 191.182,188.047 184.5,188.5C 184.5,186.833 184.5,185.167 184.5,183.5C 190.842,183.666 197.175,183.5 203.5,183C 204.582,181.67 205.249,180.17 205.5,178.5C 205.5,177.833 205.5,177.167 205.5,176.5C 205.5,175.5 205.5,174.5 205.5,173.5 Z"/></g>
<g><path style="opacity:1" fill="#e3cebb" d="M 219.5,144.5 C 219.833,144.5 220.167,144.5 220.5,144.5C 220.5,145.167 220.5,145.833 220.5,146.5C 220.5,152.5 220.5,158.5 220.5,164.5C 220.5,171.833 220.5,179.167 220.5,186.5C 220.5,193.833 220.5,201.167 220.5,208.5C 220.733,213.895 220.4,219.228 219.5,224.5C 219.5,225.167 219.167,225.5 218.5,225.5C 218.167,225.5 217.833,225.5 217.5,225.5C 218.413,219.559 218.746,213.559 218.5,207.5C 219.497,186.673 219.831,165.673 219.5,144.5 Z"/></g>
<g><path style="opacity:0.967" fill="#685983" d="M 248.5,172.5 C 255.089,174.333 257.589,178.667 256,185.5C 255.124,187.635 253.624,188.969 251.5,189.5C 251.649,188.448 251.483,187.448 251,186.5C 249.414,185.395 248.248,184.061 247.5,182.5C 249.2,180.79 250.533,178.79 251.5,176.5C 250.828,174.84 249.828,173.507 248.5,172.5 Z"/></g>
<g><path style="opacity:1" fill="#e6c57e" d="M 118.5,167.5 C 119.485,171.634 119.818,175.968 119.5,180.5C 118.85,180.196 118.183,179.863 117.5,179.5C 117.167,181.667 116.833,183.833 116.5,186C 116.958,190.829 117.291,195.662 117.5,200.5C 116.833,199.167 116.167,197.833 115.5,196.5C 115.5,196.167 115.5,195.833 115.5,195.5C 115.334,187.493 115.5,179.493 116,171.5C 116.662,170.016 117.496,168.683 118.5,167.5 Z"/></g>
<g><path style="opacity:0.388" fill="#948ca3" d="M 72.5,187.5 C 74.337,187.639 74.6704,188.306 73.5,189.5C 72.7025,189.043 72.3691,188.376 72.5,187.5 Z"/></g>
<g><path style="opacity:1" fill="#8b365f" d="M 240.5,182.5 C 242.833,182.5 245.167,182.5 247.5,182.5C 248.248,184.061 249.414,185.395 251,186.5C 251.483,187.448 251.649,188.448 251.5,189.5C 250.365,191.213 248.698,191.88 246.5,191.5C 240.028,192.256 236.028,189.589 234.5,183.5C 236.621,183.675 238.621,183.341 240.5,182.5 Z"/></g>
<g><path style="opacity:1" fill="#4b395b" d="M 95.5,149.5 C 98.2617,149.886 99.2617,151.219 98.5,153.5C 100.958,155.12 102.958,157.12 104.5,159.5C 104.819,163.136 105.985,166.469 108,169.5C 108.333,180.167 108.667,190.833 109,201.5C 109.417,202.756 110.25,203.423 111.5,203.5C 110.766,204.708 110.433,206.041 110.5,207.5C 112.924,207.808 115.257,207.474 117.5,206.5C 115.962,204.757 114.962,202.757 114.5,200.5C 115.434,199.432 115.768,198.099 115.5,196.5C 116.167,197.833 116.833,199.167 117.5,200.5C 118.348,203.888 120.348,206.221 123.5,207.5C 123.5,208.167 123.833,208.5 124.5,208.5C 124.167,209.167 123.833,209.833 123.5,210.5C 119.132,213.274 117.465,217.274 118.5,222.5C 116.685,221.37 114.685,220.704 112.5,220.5C 112.611,219.883 112.944,219.383 113.5,219C 110.79,217.54 110.124,215.54 111.5,213C 110.095,211.731 108.429,211.231 106.5,211.5C 106.111,198.165 105.611,184.832 105,171.5C 104.243,169.685 103.41,168.019 102.5,166.5C 101.833,164.833 101.167,163.167 100.5,161.5C 98.1093,159.385 96.7759,156.719 96.5,153.5C 93.4331,153.879 92.4331,152.879 93.5,150.5C 94.1667,150.167 94.8333,149.833 95.5,149.5 Z"/></g>
<g><path style="opacity:1" fill="#fad06d" d="M 125.5,163.5 C 126.165,165.698 126.832,168.031 127.5,170.5C 128.183,170.137 128.85,169.804 129.5,169.5C 129.5,170.167 129.5,170.833 129.5,171.5C 128.837,173.641 128.503,175.975 128.5,178.5C 128.315,182.141 128.981,185.474 130.5,188.5C 130.998,191.326 132.331,193.66 134.5,195.5C 134.461,196.583 134.127,197.583 133.5,198.5C 128.471,199.495 123.638,199.495 119,198.5C 118.722,199.416 118.222,200.082 117.5,200.5C 117.291,195.662 116.958,190.829 116.5,186C 116.833,183.833 117.167,181.667 117.5,179.5C 118.183,179.863 118.85,180.196 119.5,180.5C 121.735,180.795 123.735,180.461 125.5,179.5C 125.5,174.167 125.5,168.833 125.5,163.5 Z"/></g>
<g><path style="opacity:1" fill="#ed8860" d="M 182.5,191.5 C 181.248,193.001 180.248,194.668 179.5,196.5C 178.833,196.5 178.5,196.833 178.5,197.5C 177.833,197.5 177.167,197.5 176.5,197.5C 176.389,196.883 176.056,196.383 175.5,196C 172.518,195.502 169.518,195.335 166.5,195.5C 166.557,194.391 166.89,193.391 167.5,192.5C 168.674,191.486 169.34,190.153 169.5,188.5C 169.833,188.5 170.167,188.5 170.5,188.5C 171.735,188.721 172.735,189.388 173.5,190.5C 173.833,190 174.167,189.5 174.5,189C 171.917,183.972 173.251,183.472 178.5,187.5C 181.93,186.258 183.263,187.591 182.5,191.5 Z"/></g>
<g><path style="opacity:1" fill="#f27087" d="M 179.5,196.5 C 180.248,194.668 181.248,193.001 182.5,191.5C 183.906,191.027 184.573,190.027 184.5,188.5C 191.182,188.047 197.682,187.713 204,187.5C 204.498,190.482 204.665,193.482 204.5,196.5C 196.167,196.5 187.833,196.5 179.5,196.5 Z"/></g>
<g><path style="opacity:0.282" fill="#211024" d="M 234.5,183.5 C 236.028,189.589 240.028,192.256 246.5,191.5C 246.5,192.167 246.167,192.5 245.5,192.5C 244.662,192.842 244.328,193.508 244.5,194.5C 240.915,194.731 237.748,193.731 235,191.5C 234.814,194.036 234.314,196.369 233.5,198.5C 233.179,193.305 233.513,188.305 234.5,183.5 Z"/></g>
<g><path style="opacity:1" fill="#f18348" d="M 151.5,191.5 C 152.752,193.001 153.752,194.668 154.5,196.5C 154.5,196.833 154.5,197.167 154.5,197.5C 152.616,197.288 151.283,196.288 150.5,194.5C 148.979,197.054 147.646,199.721 146.5,202.5C 145.264,201.754 143.93,201.421 142.5,201.5C 139.872,199.512 137.205,197.512 134.5,195.5C 132.331,193.66 130.998,191.326 130.5,188.5C 130.351,187.448 130.517,186.448 131,185.5C 131.098,187.619 131.931,189.286 133.5,190.5C 137.554,189.504 141.554,189.838 145.5,191.5C 146.086,191.291 146.586,190.957 147,190.5C 148.226,192.548 149.726,192.881 151.5,191.5 Z"/></g>
<g><path style="opacity:1" fill="#5f5266" d="M 94.5,196.5 C 94.6663,203.175 94.4996,209.842 94,216.5C 93.8213,212.975 93.3213,209.641 92.5,206.5C 91.8716,203.045 89.8716,201.878 86.5,203C 85.5442,206.394 85.2108,209.894 85.5,213.5C 84.5,213.5 83.5,213.5 82.5,213.5C 82.0899,207.379 82.5899,201.379 84,195.5C 87.9465,191.324 91.4465,191.657 94.5,196.5 Z"/></g>
<g><path style="opacity:1" fill="#da6e9f" d="M 232.5,205.5 C 231.71,204.391 231.21,203.058 231,201.5C 230.333,202.833 229.667,204.167 229,205.5C 228.517,204.552 228.351,203.552 228.5,202.5C 225.566,203.289 223.732,205.289 223,208.5C 222.31,209.738 221.81,209.738 221.5,208.5C 221.334,204.154 221.501,199.821 222,195.5C 223.553,189.011 224.553,189.011 225,195.5C 226.049,193.893 227.549,193.227 229.5,193.5C 229.34,191.801 229.506,190.134 230,188.5C 231.884,193.934 232.718,199.601 232.5,205.5 Z"/></g>
<g><path style="opacity:1" fill="#f9d073" d="M 166.5,195.5 C 169.518,195.335 172.518,195.502 175.5,196C 176.056,196.383 176.389,196.883 176.5,197.5C 174.901,197.232 173.568,197.566 172.5,198.5C 171.508,205.982 171.175,213.648 171.5,221.5C 171.819,223.75 171.319,225.75 170,227.5C 169.764,225.189 168.931,223.189 167.5,221.5C 168.019,213.627 167.352,205.96 165.5,198.5C 165.52,197.274 165.853,196.274 166.5,195.5 Z"/></g>
<g><path style="opacity:1" fill="#7e364e" d="M 176.5,197.5 C 177.167,197.5 177.833,197.5 178.5,197.5C 187.167,197.5 195.833,197.5 204.5,197.5C 204.5,199.167 204.5,200.833 204.5,202.5C 204.5,203.167 204.167,203.5 203.5,203.5C 203.5,202.5 203.5,201.5 203.5,200.5C 193.167,200.5 182.833,200.5 172.5,200.5C 172.5,199.833 172.5,199.167 172.5,198.5C 173.568,197.566 174.901,197.232 176.5,197.5 Z"/></g>
<g><path style="opacity:0.631" fill="#b5666e" d="M 245.5,192.5 C 246.19,197.921 247.19,203.254 248.5,208.5C 248.276,212.303 248.11,216.303 248,220.5C 246.761,214.944 246.094,209.278 246,203.5C 244.63,209.742 244.13,216.075 244.5,222.5C 242.801,222.66 241.134,222.494 239.5,222C 238.978,221.439 238.645,220.772 238.5,220C 241.351,211.675 243.351,203.175 244.5,194.5C 244.328,193.508 244.662,192.842 245.5,192.5 Z"/></g>
<g><path style="opacity:0.533" fill="#b2836a" d="M 64.5,198.5 C 64.886,196.063 66.0527,194.063 68,192.5C 70.207,195.078 72.0404,197.911 73.5,201C 70.3812,202.405 67.0479,202.905 63.5,202.5C 63.2322,200.901 63.5655,199.568 64.5,198.5 Z"/></g>
<g><path style="opacity:1" fill="#f0b05a" d="M 64.5,198.5 C 66.0931,197.652 67.2597,196.319 68,194.5C 69.5234,196.569 70.3568,198.903 70.5,201.5C 68.5,201.5 66.5,201.5 64.5,201.5C 64.5,200.5 64.5,199.5 64.5,198.5 Z"/></g>
<g><path style="opacity:1" fill="#fad66e" d="M 102.5,219.5 C 102.815,223.371 102.482,227.038 101.5,230.5C 101.665,227.15 101.498,223.817 101,220.5C 100.29,221.973 99.1238,222.64 97.5,222.5C 97.4208,221.07 97.7542,219.736 98.5,218.5C 97.7666,217.913 96.7666,217.913 95.5,218.5C 95.5,218.167 95.5,217.833 95.5,217.5C 96.0205,209.51 97.3539,201.843 99.5,194.5C 100.281,195.729 100.781,197.062 101,198.5C 101.171,205.679 101.671,212.679 102.5,219.5 Z"/></g>
<g><path style="opacity:1" fill="#b14b48" d="M 172.5,200.5 C 182.833,200.5 193.167,200.5 203.5,200.5C 203.5,201.5 203.5,202.5 203.5,203.5C 202.833,203.833 202.167,204.167 201.5,204.5C 192.225,202.527 182.558,201.86 172.5,202.5C 172.5,201.833 172.5,201.167 172.5,200.5 Z"/></g>
<g><path style="opacity:1" fill="#fabf56" d="M 134.5,195.5 C 137.205,197.512 139.872,199.512 142.5,201.5C 143.091,202.151 143.757,202.818 144.5,203.5C 136.741,204.926 129.074,204.592 121.5,202.5C 121.167,202.833 120.833,203.167 120.5,203.5C 121.524,204.852 122.524,206.185 123.5,207.5C 120.348,206.221 118.348,203.888 117.5,200.5C 118.222,200.082 118.722,199.416 119,198.5C 123.638,199.495 128.471,199.495 133.5,198.5C 134.127,197.583 134.461,196.583 134.5,195.5 Z"/></g>
<g><path style="opacity:1" fill="#f7b148" d="M 154.5,197.5 C 153.328,198.705 151.995,198.705 150.5,197.5C 149.54,201.139 149.54,204.805 150.5,208.5C 150.167,208.5 149.833,208.5 149.5,208.5C 141.167,208.5 132.833,208.5 124.5,208.5C 123.833,208.5 123.5,208.167 123.5,207.5C 122.524,206.185 121.524,204.852 120.5,203.5C 120.833,203.167 121.167,202.833 121.5,202.5C 129.074,204.592 136.741,204.926 144.5,203.5C 143.757,202.818 143.091,202.151 142.5,201.5C 143.93,201.421 145.264,201.754 146.5,202.5C 147.646,199.721 148.979,197.054 150.5,194.5C 151.283,196.288 152.616,197.288 154.5,197.5 Z"/></g>
<g><path style="opacity:1" fill="#dda75b" d="M 114.5,200.5 C 114.962,202.757 115.962,204.757 117.5,206.5C 115.257,207.474 112.924,207.808 110.5,207.5C 110.433,206.041 110.766,204.708 111.5,203.5C 112.167,202.167 113.167,201.167 114.5,200.5 Z"/></g>
<g><path style="opacity:1" fill="#eb663e" d="M 172.5,202.5 C 182.558,201.86 192.225,202.527 201.5,204.5C 200.965,206.446 199.632,207.446 197.5,207.5C 189.167,207.5 180.833,207.5 172.5,207.5C 172.5,205.833 172.5,204.167 172.5,202.5 Z"/></g>
<g><path style="opacity:1" fill="#846f5d" d="M 94.5,196.5 C 95.4912,203.313 95.8245,210.313 95.5,217.5C 95.5,217.833 95.5,218.167 95.5,218.5C 94.5,218.5 93.5,218.5 92.5,218.5C 92.5,214.5 92.5,210.5 92.5,206.5C 93.3213,209.641 93.8213,212.975 94,216.5C 94.4996,209.842 94.6663,203.175 94.5,196.5 Z"/></g>
<g><path style="opacity:1" fill="#251535" d="M 167.5,192.5 C 166.89,193.391 166.557,194.391 166.5,195.5C 165.853,196.274 165.52,197.274 165.5,198.5C 167.352,205.96 168.019,213.627 167.5,221.5C 167.167,221.5 166.833,221.5 166.5,221.5C 162.833,221.5 159.167,221.5 155.5,221.5C 155.24,214.443 155.573,207.443 156.5,200.5C 157.167,200.167 157.833,199.833 158.5,199.5C 157.759,205.471 157.425,211.471 157.5,217.5C 158.552,217.649 159.552,217.483 160.5,217C 160.692,212.248 160.359,207.415 159.5,202.5C 161.4,200.381 163.066,198.047 164.5,195.5C 163.998,194.479 163.332,194.312 162.5,195C 161.953,195.925 161.287,196.758 160.5,197.5C 160.167,197.167 159.833,196.833 159.5,196.5C 160.888,192.906 163.555,191.573 167.5,192.5 Z"/></g>
<g><path style="opacity:1" fill="#de6194" d="M 232.5,205.5 C 232.5,209.167 232.5,212.833 232.5,216.5C 231.686,214.369 231.186,212.036 231,209.5C 229.395,211.825 227.728,214.158 226,216.5C 225.751,215.376 225.251,214.376 224.5,213.5C 223.593,215.939 222.593,218.272 221.5,220.5C 221.843,222.483 221.176,223.817 219.5,224.5C 220.4,219.228 220.733,213.895 220.5,208.5C 220.833,208.5 221.167,208.5 221.5,208.5C 221.81,209.738 222.31,209.738 223,208.5C 223.732,205.289 225.566,203.289 228.5,202.5C 228.351,203.552 228.517,204.552 229,205.5C 229.667,204.167 230.333,202.833 231,201.5C 231.21,203.058 231.71,204.391 232.5,205.5 Z"/></g>
<g><path style="opacity:1" fill="#673137" d="M 197.5,208.5 C 197.082,209.222 196.416,209.722 195.5,210C 191.312,210.176 187.312,210.676 183.5,211.5C 179.755,212.331 176.088,212.331 172.5,211.5C 172.5,210.5 172.5,209.5 172.5,208.5C 180.833,208.5 189.167,208.5 197.5,208.5 Z"/></g>
<g><path style="opacity:1" fill="#5c496f" d="M 102.5,166.5 C 103.41,168.019 104.243,169.685 105,171.5C 105.611,184.832 106.111,198.165 106.5,211.5C 108.429,211.231 110.095,211.731 111.5,213C 110.124,215.54 110.79,217.54 113.5,219C 112.944,219.383 112.611,219.883 112.5,220.5C 109.583,219.583 106.583,218.916 103.5,218.5C 103.5,211.167 103.5,203.833 103.5,196.5C 104.968,186.565 104.635,176.565 102.5,166.5 Z"/></g>
<g><path style="opacity:1" fill="#6e372e" d="M 124.5,208.5 C 132.833,208.5 141.167,208.5 149.5,208.5C 149.5,210.167 149.5,211.833 149.5,213.5C 145.484,212.257 141.484,212.257 137.5,213.5C 136.833,213.5 136.167,213.5 135.5,213.5C 131.982,211.034 127.982,210.034 123.5,210.5C 123.833,209.833 124.167,209.167 124.5,208.5 Z"/></g>
<g><path style="opacity:1" fill="#2c131a" d="M 155.5,200.5 C 155.833,200.5 156.167,200.5 156.5,200.5C 155.573,207.443 155.24,214.443 155.5,221.5C 159.167,221.5 162.833,221.5 166.5,221.5C 162.702,222.483 158.702,222.817 154.5,222.5C 154.203,215.08 154.536,207.746 155.5,200.5 Z"/></g>
<g><path style="opacity:1" fill="#d8558e" d="M 232.5,216.5 C 232.328,217.492 232.662,218.158 233.5,218.5C 233.666,225.841 233.5,233.174 233,240.5C 230.837,246.911 226.671,249.245 220.5,247.5C 229.892,246.583 233.558,241.416 231.5,232C 231.167,228.833 230.833,225.667 230.5,222.5C 228.627,221.911 226.96,222.578 225.5,224.5C 224.702,222.922 224.202,221.256 224,219.5C 223.329,220.252 222.496,220.586 221.5,220.5C 222.593,218.272 223.593,215.939 224.5,213.5C 225.251,214.376 225.751,215.376 226,216.5C 227.728,214.158 229.395,211.825 231,209.5C 231.186,212.036 231.686,214.369 232.5,216.5 Z"/></g>
<g><path style="opacity:0.878" fill="#722735" d="M 248.5,208.5 C 249.444,212.817 249.944,217.151 250,221.5C 248.301,222.406 246.467,222.739 244.5,222.5C 244.13,216.075 244.63,209.742 246,203.5C 246.094,209.278 246.761,214.944 248,220.5C 248.11,216.303 248.276,212.303 248.5,208.5 Z"/></g>
<g><path style="opacity:1" fill="#f4d275" d="M 92.5,206.5 C 92.5,210.5 92.5,214.5 92.5,218.5C 93.5,218.5 94.5,218.5 95.5,218.5C 92.9759,219.8 90.3092,219.8 87.5,218.5C 85.9605,216.592 84.2939,214.925 82.5,213.5C 83.5,213.5 84.5,213.5 85.5,213.5C 85.2108,209.894 85.5442,206.394 86.5,203C 89.8716,201.878 91.8716,203.045 92.5,206.5 Z"/></g>
<g><path style="opacity:1" fill="#ae5b65" d="M 172.5,211.5 C 176.088,212.331 179.755,212.331 183.5,211.5C 187.182,211.335 190.848,211.501 194.5,212C 194.167,212.333 193.833,212.667 193.5,213C 194.9,214.438 196.567,215.271 198.5,215.5C 198.5,216.833 198.5,218.167 198.5,219.5C 200.665,219.116 202.332,219.783 203.5,221.5C 201.625,222.409 200.292,223.743 199.5,225.5C 197.225,226.111 195.559,227.445 194.5,229.5C 195.586,223.886 193.92,219.386 189.5,216C 190.833,215.333 190.833,214.667 189.5,214C 181.977,210.931 176.644,213.098 173.5,220.5C 172.523,217.713 172.19,214.713 172.5,211.5 Z"/></g>
<g><path style="opacity:1" fill="#975675" d="M 203.5,203.5 C 211.371,208.893 212.371,215.393 206.5,223C 204.146,223.847 201.812,224.68 199.5,225.5C 200.292,223.743 201.625,222.409 203.5,221.5C 202.332,219.783 200.665,219.116 198.5,219.5C 198.5,218.167 198.5,216.833 198.5,215.5C 196.567,215.271 194.9,214.438 193.5,213C 193.833,212.667 194.167,212.333 194.5,212C 190.848,211.501 187.182,211.335 183.5,211.5C 187.312,210.676 191.312,210.176 195.5,210C 196.416,209.722 197.082,209.222 197.5,208.5C 197.5,208.167 197.5,207.833 197.5,207.5C 199.632,207.446 200.965,206.446 201.5,204.5C 202.167,204.167 202.833,203.833 203.5,203.5 Z"/></g>
<g><path style="opacity:1" fill="#fbd26a" d="M 135.5,213.5 C 136.167,213.5 136.833,213.5 137.5,213.5C 139.252,215.246 140.585,217.246 141.5,219.5C 141.34,221.153 140.674,222.486 139.5,223.5C 139.013,222.527 138.513,221.527 138,220.5C 132.925,222.364 127.759,222.697 122.5,221.5C 121.904,222.716 121.737,224.049 122,225.5C 118.967,222.376 118.801,219.043 121.5,215.5C 123.677,216.504 124.011,215.838 122.5,213.5C 126.734,213.182 131.067,213.182 135.5,213.5 Z"/></g>
<g><path style="opacity:1" fill="#f9d266" d="M 82.5,213.5 C 84.2939,214.925 85.9605,216.592 87.5,218.5C 90.3092,219.8 92.9759,219.8 95.5,218.5C 96.7666,217.913 97.7666,217.913 98.5,218.5C 97.7542,219.736 97.4208,221.07 97.5,222.5C 99.1238,222.64 100.29,221.973 101,220.5C 101.498,223.817 101.665,227.15 101.5,230.5C 101.771,232.38 101.104,233.713 99.5,234.5C 99.8957,231.956 99.229,229.789 97.5,228C 99.158,227.275 99.658,226.108 99,224.5C 95.5129,225.239 92.0129,226.073 88.5,227C 87.624,228.586 86.624,230.086 85.5,231.5C 84.1743,230.01 82.6743,228.676 81,227.5C 80.8563,224.975 80.6896,222.642 80.5,220.5C 79.9898,217.612 80.6565,215.279 82.5,213.5 Z"/></g>
<g><path style="opacity:1" fill="#f7c45d" d="M 154.5,196.5 C 155.434,197.568 155.768,198.901 155.5,200.5C 154.536,207.746 154.203,215.08 154.5,222.5C 155.919,223.451 157.585,223.784 159.5,223.5C 159.663,225.857 159.497,228.19 159,230.5C 157.644,231.38 156.144,231.714 154.5,231.5C 152.827,230.657 151.66,229.324 151,227.5C 150.5,221.175 150.334,214.842 150.5,208.5C 149.54,204.805 149.54,201.139 150.5,197.5C 151.995,198.705 153.328,198.705 154.5,197.5C 154.5,197.167 154.5,196.833 154.5,196.5 Z"/></g>
<g><path style="opacity:1" fill="#c76962" d="M 194.5,229.5 C 193.455,242.228 186.789,247.228 174.5,244.5C 178.402,244.786 182.402,244.286 186.5,243C 187.71,241.961 188.71,240.794 189.5,239.5C 192.372,236.046 193.539,232.046 193,227.5C 191.092,230.332 190.259,229.999 190.5,226.5C 185.642,225.404 181.309,223.238 177.5,220C 176.072,219.421 174.738,219.588 173.5,220.5C 176.644,213.098 181.977,210.931 189.5,214C 190.833,214.667 190.833,215.333 189.5,216C 193.92,219.386 195.586,223.886 194.5,229.5 Z"/></g>
<g><path style="opacity:1" fill="#f2c468" d="M 123.5,210.5 C 127.982,210.034 131.982,211.034 135.5,213.5C 131.067,213.182 126.734,213.182 122.5,213.5C 124.011,215.838 123.677,216.504 121.5,215.5C 118.801,219.043 118.967,222.376 122,225.5C 121.737,224.049 121.904,222.716 122.5,221.5C 127.759,222.697 132.925,222.364 138,220.5C 138.513,221.527 139.013,222.527 139.5,223.5C 136.682,226.567 133.349,227.234 129.5,225.5C 129.194,228.385 129.527,231.052 130.5,233.5C 130.5,236.5 130.5,239.5 130.5,242.5C 129.5,241.167 128.5,241.167 127.5,242.5C 128.135,239.507 128.301,236.507 128,233.5C 124.898,229.718 121.731,226.052 118.5,222.5C 117.465,217.274 119.132,213.274 123.5,210.5 Z"/></g>
<g><path style="opacity:1" fill="#d96f54" d="M 172.5,198.5 C 172.5,199.167 172.5,199.833 172.5,200.5C 172.5,201.167 172.5,201.833 172.5,202.5C 172.5,204.167 172.5,205.833 172.5,207.5C 180.833,207.5 189.167,207.5 197.5,207.5C 197.5,207.833 197.5,208.167 197.5,208.5C 189.167,208.5 180.833,208.5 172.5,208.5C 172.5,209.5 172.5,210.5 172.5,211.5C 172.19,214.713 172.523,217.713 173.5,220.5C 174.738,219.588 176.072,219.421 177.5,220C 181.309,223.238 185.642,225.404 190.5,226.5C 190.259,229.999 191.092,230.332 193,227.5C 193.539,232.046 192.372,236.046 189.5,239.5C 189.579,238.07 189.246,236.736 188.5,235.5C 182.61,232.119 177.276,228.785 172.5,225.5C 172.768,223.901 172.434,222.568 171.5,221.5C 171.175,213.648 171.508,205.982 172.5,198.5 Z"/></g>
<g><path style="opacity:1" fill="#f8cb63" d="M 80.5,220.5 C 80.6896,222.642 80.8563,224.975 81,227.5C 82.6743,228.676 84.1743,230.01 85.5,231.5C 86.624,230.086 87.624,228.586 88.5,227C 92.0129,226.073 95.5129,225.239 99,224.5C 99.658,226.108 99.158,227.275 97.5,228C 99.229,229.789 99.8957,231.956 99.5,234.5C 98.5136,238.972 95.6803,240.972 91,240.5C 86.8849,240.075 83.3849,238.409 80.5,235.5C 78.6234,229.982 78.1234,224.315 79,218.5C 79.2784,219.416 79.7784,220.082 80.5,220.5 Z"/></g>
<g><path style="opacity:1" fill="#fabf54" d="M 141.5,219.5 C 143.554,222.008 144.554,225.008 144.5,228.5C 144.286,230.144 144.62,231.644 145.5,233C 140.948,233.069 136.782,234.236 133,236.5C 132.764,234.881 131.931,233.881 130.5,233.5C 129.527,231.052 129.194,228.385 129.5,225.5C 133.349,227.234 136.682,226.567 139.5,223.5C 140.674,222.486 141.34,221.153 141.5,219.5 Z"/></g>
<g><path style="opacity:1" fill="#b35d41" d="M 149.5,208.5 C 149.833,208.5 150.167,208.5 150.5,208.5C 150.334,214.842 150.5,221.175 151,227.5C 151.66,229.324 152.827,230.657 154.5,231.5C 157.534,233.018 160.867,233.851 164.5,234C 162.611,235.764 160.611,237.264 158.5,238.5C 155.721,238.721 153.054,238.388 150.5,237.5C 147.406,235.201 145.406,232.201 144.5,228.5C 144.554,225.008 143.554,222.008 141.5,219.5C 140.585,217.246 139.252,215.246 137.5,213.5C 141.484,212.257 145.484,212.257 149.5,213.5C 149.5,211.833 149.5,210.167 149.5,208.5 Z"/></g>
<g><path style="opacity:1" fill="#dc4382" d="M 220.5,247.5 C 218.62,247.771 217.287,247.104 216.5,245.5C 214.745,238.559 215.411,231.892 218.5,225.5C 219.167,225.5 219.5,225.167 219.5,224.5C 221.176,223.817 221.843,222.483 221.5,220.5C 222.496,220.586 223.329,220.252 224,219.5C 224.202,221.256 224.702,222.922 225.5,224.5C 226.96,222.578 228.627,221.911 230.5,222.5C 230.833,225.667 231.167,228.833 231.5,232C 233.558,241.416 229.892,246.583 220.5,247.5 Z"/></g>
<g><path style="opacity:0.686" fill="#c4869d" d="M 217.5,225.5 C 217.833,225.5 218.167,225.5 218.5,225.5C 215.411,231.892 214.745,238.559 216.5,245.5C 214.106,243.668 213.106,241.168 213.5,238C 213.541,233.309 214.874,229.142 217.5,225.5 Z"/></g>
<g><path style="opacity:0.439" fill="#c7a876" d="M 102.5,195.5 C 102.833,195.5 103.167,195.5 103.5,195.5C 103.5,195.833 103.5,196.167 103.5,196.5C 103.5,203.833 103.5,211.167 103.5,218.5C 103.666,223.179 103.499,227.845 103,232.5C 99.9801,240.854 94.1468,244.02 85.5,242C 82.6688,240.334 80.3355,238.168 78.5,235.5C 79.1667,235.5 79.8333,235.5 80.5,235.5C 83.3849,238.409 86.8849,240.075 91,240.5C 95.6803,240.972 98.5136,238.972 99.5,234.5C 101.104,233.713 101.771,232.38 101.5,230.5C 102.482,227.038 102.815,223.371 102.5,219.5C 102.5,211.5 102.5,203.5 102.5,195.5 Z"/></g>
<g><path style="opacity:1" fill="#e77149" d="M 172.5,225.5 C 177.276,228.785 182.61,232.119 188.5,235.5C 189.246,236.736 189.579,238.07 189.5,239.5C 188.71,240.794 187.71,241.961 186.5,243C 182.402,244.286 178.402,244.786 174.5,244.5C 169.767,242.035 165.1,242.035 160.5,244.5C 160.5,243.5 160.5,242.5 160.5,241.5C 161.833,241.5 163.167,241.5 164.5,241.5C 168.911,241.936 173.244,241.936 177.5,241.5C 175.611,240.396 173.945,239.063 172.5,237.5C 171.844,233.517 171.844,229.517 172.5,225.5 Z"/></g>
<g><path style="opacity:1" fill="#fab345" d="M 144.5,228.5 C 145.406,232.201 147.406,235.201 150.5,237.5C 150.574,239.411 151.574,240.578 153.5,241C 151.616,241.216 149.949,241.883 148.5,243C 143.839,243.182 139.339,244.015 135,245.5C 133.883,244.051 133.216,242.384 133,240.5C 132.583,241.756 131.75,242.423 130.5,242.5C 130.5,239.5 130.5,236.5 130.5,233.5C 131.931,233.881 132.764,234.881 133,236.5C 136.782,234.236 140.948,233.069 145.5,233C 144.62,231.644 144.286,230.144 144.5,228.5 Z"/></g>
<g><path style="opacity:1" fill="#f37f37" d="M 166.5,221.5 C 166.833,221.5 167.167,221.5 167.5,221.5C 168.931,223.189 169.764,225.189 170,227.5C 171.319,225.75 171.819,223.75 171.5,221.5C 172.434,222.568 172.768,223.901 172.5,225.5C 171.844,229.517 171.844,233.517 172.5,237.5C 173.945,239.063 175.611,240.396 177.5,241.5C 173.244,241.936 168.911,241.936 164.5,241.5C 162.97,239.654 160.97,238.654 158.5,238.5C 160.611,237.264 162.611,235.764 164.5,234C 160.867,233.851 157.534,233.018 154.5,231.5C 156.144,231.714 157.644,231.38 159,230.5C 159.497,228.19 159.663,225.857 159.5,223.5C 157.585,223.784 155.919,223.451 154.5,222.5C 158.702,222.817 162.702,222.483 166.5,221.5 Z"/></g>
<g><path style="opacity:1" fill="#d3a268" d="M 109.5,234.5 C 110.496,234.414 111.329,234.748 112,235.5C 113.37,238.05 114.537,240.717 115.5,243.5C 112.232,244.487 108.898,244.82 105.5,244.5C 106.627,241.128 107.96,237.794 109.5,234.5 Z"/></g>
<g><path style="opacity:1" fill="#f8a93d" d="M 150.5,237.5 C 153.054,238.388 155.721,238.721 158.5,238.5C 160.97,238.654 162.97,239.654 164.5,241.5C 163.167,241.5 161.833,241.5 160.5,241.5C 160.5,242.5 160.5,243.5 160.5,244.5C 157.353,247.468 154.686,250.802 152.5,254.5C 152.8,251.731 153.8,249.231 155.5,247C 154.291,243.899 152.625,243.732 150.5,246.5C 152.723,249.926 152.056,250.259 148.5,247.5C 144.889,248.262 141.222,248.762 137.5,249C 135.324,249.163 133.491,249.996 132,251.5C 131.333,250.167 130.667,248.833 130,247.5C 129.901,249.653 129.067,251.319 127.5,252.5C 126.481,249.206 126.481,245.872 127.5,242.5C 128.5,241.167 129.5,241.167 130.5,242.5C 131.75,242.423 132.583,241.756 133,240.5C 133.216,242.384 133.883,244.051 135,245.5C 139.339,244.015 143.839,243.182 148.5,243C 149.949,241.883 151.616,241.216 153.5,241C 151.574,240.578 150.574,239.411 150.5,237.5 Z"/></g>
<g><path style="opacity:1" fill="#faa536" d="M 152.5,254.5 C 149.61,253.488 146.776,253.822 144,255.5C 138.074,255.341 132.574,254.341 127.5,252.5C 129.067,251.319 129.901,249.653 130,247.5C 130.667,248.833 131.333,250.167 132,251.5C 133.491,249.996 135.324,249.163 137.5,249C 141.222,248.762 144.889,248.262 148.5,247.5C 152.056,250.259 152.723,249.926 150.5,246.5C 152.625,243.732 154.291,243.899 155.5,247C 153.8,249.231 152.8,251.731 152.5,254.5 Z"/></g>
<g><path style="opacity:0.153" fill="#c9b0ab" d="M 181.5,249.5 C 183.337,249.639 183.67,250.306 182.5,251.5C 181.702,251.043 181.369,250.376 181.5,249.5 Z"/></g>
<g><path style="opacity:0.722" fill="#9f6d6e" d="M 238.5,249.5 C 239.5,249.5 240.5,249.5 241.5,249.5C 241.426,253.541 240.093,254.208 237.5,251.5C 237.863,250.817 238.196,250.15 238.5,249.5 Z"/></g>
<g><path style="opacity:1" fill="#b58861" d="M 76.5,248.5 C 79.1142,248.277 80.7809,249.444 81.5,252C 78.6507,255.5 76.3174,255.334 74.5,251.5C 74.9424,250.261 75.6091,249.261 76.5,248.5 Z"/></g>
<g><path style="opacity:1" fill="#f19a3a" d="M 127.5,242.5 C 126.481,245.872 126.481,249.206 127.5,252.5C 132.574,254.341 138.074,255.341 144,255.5C 146.776,253.822 149.61,253.488 152.5,254.5C 148.89,264.306 141.89,267.806 131.5,265C 122.908,258.74 121.575,251.24 127.5,242.5 Z"/></g>
<g><path style="opacity:0.376" fill="#af8774" d="M 169.5,256.5 C 173.138,255.737 174.638,257.07 174,260.5C 170.331,262.009 168.831,260.676 169.5,256.5 Z"/></g>
<g><path style="opacity:0.78" fill="#a57d76" d="M 100.5,270.5 C 104.071,270.408 105.238,272.074 104,275.5C 101.694,276.582 100.194,275.748 99.5,273C 99.7432,272.098 100.077,271.265 100.5,270.5 Z"/></g>
<g><path style="opacity:0.647" fill="#7d6c7a" d="M 197.5,275.5 C 198.5,275.5 199.5,275.5 200.5,275.5C 199.754,279.31 198.754,279.31 197.5,275.5 Z"/></g>
</svg>
